<?xml version="1.0" encoding="utf-8"?>
<!-- Generator: Adobe Illustrator 23.0.3, SVG Export Plug-In . SVG Version: 6.00 Build 0)  -->
<svg version="1.1" id="Layer_1" xmlns="http://www.w3.org/2000/svg" xmlns:xlink="http://www.w3.org/1999/xlink" x="0px" y="0px"
	 viewBox="0 0 662.7 746" style="enable-background:new 0 0 662.7 746;" xml:space="preserve">
<style type="text/css">
	.st0{enable-background:new    ;}
	.st1{fill:#414141;}
	.st2{fill:#F1F1F1;}
	.st3{fill:#FFE6B3;}
	.st4{fill:#FF9F51;}
	.st5{fill:#FFC282;}
	.st6{fill:#FF7B20;}
	.st7{fill:#EF5D09;}
	.st8{fill:#8C130E;}
	.st9{fill:#AD2C0C;}
	.st10{fill:#CE440B;}
	.st11{fill:none;stroke:#AAAAAA;stroke-dasharray:2,4;}
	.st12{fill:#AAAAAA;}
</style>
<g class="st0">
	<path class="st1" d="M329,153.8l-0.9-2l0,0v6.6h-2v-9.8h2.3l2.7,4.6l0.9,2l0,0v-6.6h2v9.8h-2.3L329,153.8z"/>
	<path class="st1" d="M335.6,154.7c0-2.4,1.3-3.8,3.4-3.8s3.4,1.5,3.4,3.8s-1.3,3.9-3.4,3.9S335.6,157.1,335.6,154.7z M340.3,155.5
		V154c0-0.9-0.5-1.5-1.3-1.5s-1.3,0.5-1.3,1.5v1.5c0,0.9,0.5,1.5,1.3,1.5S340.3,156.4,340.3,155.5z"/>
	<path class="st1" d="M343.9,158.4V151h2.1v1.6h0.1c0.2-0.8,0.7-1.6,1.9-1.6h0.4v1.9h-0.5c-1.2,0-1.8,0.3-1.8,1.1v4.3L343.9,158.4
		L343.9,158.4z"/>
	<path class="st1" d="M352.2,158.4c-1.4,0-2.2-0.7-2.2-2.1v-3.6h-1V151h0.5c0.6,0,0.7-0.3,0.7-0.8V149h1.9v2h1.5v1.6h-1.5v4.1h1.3
		v1.6L352.2,158.4L352.2,158.4z"/>
	<path class="st1" d="M355,148h2.1v4.3h0.1c0.3-0.8,0.9-1.4,2-1.4c1.5,0,2.3,1.1,2.3,2.9v4.6h-2.1V154c0-0.9-0.3-1.4-1-1.4
		s-1.3,0.3-1.3,1.1v4.8H355V148z"/>
	<path class="st1" d="M366.4,158.4v-1.7h1.3v-6.4h-1.3v-1.7h4.7v1.7h-1.3v6.4h1.3v1.7H366.4z"/>
	<path class="st1" d="M372.7,158.4V151h2.1v1.2h0.1c0.3-0.8,0.9-1.4,2-1.4c1.5,0,2.3,1.1,2.3,2.9v4.6h-2.1V154c0-0.9-0.3-1.4-1-1.4
		s-1.3,0.3-1.3,1.1v4.8h-2.1V158.4z"/>
	<path class="st1" d="M385.6,157.2L385.6,157.2c-0.3,0.8-1.1,1.4-2,1.4c-1.9,0-2.8-1.4-2.8-3.9s1-3.8,2.8-3.8c1,0,1.8,0.6,2,1.4h0.1
		V148h2.1v10.4h-2.1v-1.2H385.6z M385.6,155.8v-2.2c0-0.7-0.6-1.1-1.4-1.1s-1.4,0.6-1.4,1.5v1.3c0,0.9,0.6,1.5,1.4,1.5
		S385.6,156.5,385.6,155.8z"/>
	<path class="st1" d="M389.4,149.2v-0.3c0-0.6,0.4-1,1.2-1s1.2,0.4,1.2,1v0.3c0,0.6-0.4,1-1.2,1S389.4,149.8,389.4,149.2z
		 M389.6,151h2.1v7.4h-2.1V151z"/>
	<path class="st1" d="M399,158.4c-0.7,0-1.3-0.5-1.4-1.3h-0.1c-0.2,1-1,1.5-2.2,1.5c-1.5,0-2.3-0.9-2.3-2.1c0-1.6,1.2-2.3,3.2-2.3
		h1.2v-0.5c0-0.7-0.3-1.2-1.2-1.2c-0.8,0-1.3,0.4-1.6,0.9l-1.2-1.1c0.6-0.9,1.4-1.4,3-1.4c2.1,0,3.1,1,3.1,2.7v3.2h0.7v1.6
		L399,158.4L399,158.4z M397.4,156.2v-0.9h-1c-0.8,0-1.2,0.3-1.2,0.8v0.2c0,0.5,0.3,0.8,1,0.8C396.8,157.1,397.4,156.8,397.4,156.2z
		"/>
	<path class="st1" d="M404.7,149.2v-0.3c0-0.6,0.4-1,1.2-1s1.2,0.4,1.2,1v0.3c0,0.6-0.4,1-1.2,1S404.7,149.8,404.7,149.2z
		 M404.8,151h2.1v7.4h-2.1V151z"/>
	<path class="st1" d="M408.2,157.3l1.2-1.2c0.5,0.6,1.1,0.9,1.9,0.9s1.1-0.3,1.1-0.7s-0.2-0.5-0.7-0.6l-0.8-0.1
		c-1.7-0.2-2.5-0.9-2.5-2.3c0-1.4,1.1-2.4,2.9-2.4c1.5,0,2.3,0.4,3,1.1l-1.2,1.2c-0.5-0.5-1.1-0.8-1.7-0.8c-0.7,0-1,0.3-1,0.6
		c0,0.4,0.2,0.6,0.8,0.7l0.8,0.1c1.6,0.2,2.4,0.9,2.4,2.2c0,1.4-1.3,2.5-3.2,2.5C409.9,158.6,409,158.1,408.2,157.3z"/>
	<path class="st1" d="M418.5,151h2l0.7,3l0.5,2.2h0.1l0.6-2.2l0.8-3h1.9l0.9,3l0.6,2.2h0.1l0.5-2.2l0.7-3h1.9l-2,7.4h-2.2l-0.9-3.1
		l-0.5-1.9l0,0l-0.5,1.9l-0.9,3.1h-2.1L418.5,151z"/>
	<path class="st1" d="M430.4,154.7c0-2.4,1.3-3.8,3.4-3.8s3.4,1.5,3.4,3.8s-1.3,3.9-3.4,3.9S430.4,157.1,430.4,154.7z M435.1,155.5
		V154c0-0.9-0.5-1.5-1.3-1.5s-1.3,0.5-1.3,1.5v1.5c0,0.9,0.5,1.5,1.3,1.5S435.1,156.4,435.1,155.5z"/>
	<path class="st1" d="M438.7,158.4V151h2.1v1.6h0.1c0.2-0.8,0.7-1.6,1.9-1.6h0.4v1.9h-0.5c-1.2,0-1.8,0.3-1.8,1.1v4.3L438.7,158.4
		L438.7,158.4z"/>
	<path class="st1" d="M443.8,157.3l1.2-1.2c0.5,0.6,1.1,0.9,1.9,0.9s1.1-0.3,1.1-0.7s-0.2-0.5-0.7-0.6l-0.8-0.1
		c-1.7-0.2-2.5-0.9-2.5-2.3c0-1.4,1.1-2.4,2.9-2.4c1.5,0,2.3,0.4,3,1.1l-1.2,1.2c-0.5-0.5-1.1-0.8-1.7-0.8c-0.7,0-1,0.3-1,0.6
		c0,0.4,0.2,0.6,0.8,0.7l0.8,0.1c1.6,0.2,2.4,0.9,2.4,2.2c0,1.4-1.3,2.5-3.2,2.5C445.5,158.6,444.5,158.1,443.8,157.3z"/>
	<path class="st1" d="M453.9,158.4c-1.4,0-2.2-0.7-2.2-2.1v-3.6h-1V151h0.5c0.6,0,0.7-0.3,0.7-0.8V149h1.9v2h1.5v1.6h-1.5v4.1h1.3
		v1.6L453.9,158.4L453.9,158.4z"/>
	<path class="st1" d="M465.4,158.4c-0.7,0-1.3-0.5-1.4-1.3h-0.1c-0.2,1-1,1.5-2.2,1.5c-1.5,0-2.3-0.9-2.3-2.1c0-1.6,1.2-2.3,3.2-2.3
		h1.2v-0.5c0-0.7-0.4-1.2-1.2-1.2c-0.8,0-1.3,0.4-1.6,0.9l-1.2-1.1c0.6-0.9,1.4-1.4,3-1.4c2.1,0,3.1,1,3.1,2.7v3.2h0.7v1.6
		L465.4,158.4L465.4,158.4z M463.8,156.2v-0.9h-1c-0.8,0-1.2,0.3-1.2,0.8v0.2c0,0.5,0.4,0.8,1,0.8
		C463.2,157.1,463.8,156.8,463.8,156.2z"/>
	<path class="st1" d="M468.3,152.7h-1V151h1v-0.9c0-1.4,0.8-2.1,2.2-2.1h1.3v1.6h-1.5v1.4h1.5v1.6h-1.5v5.7h-2.1v-5.6H468.3z"/>
	<path class="st1" d="M473.4,152.7h-1V151h1v-0.9c0-1.4,0.8-2.1,2.2-2.1h1.3v1.6h-1.5v1.4h1.5v1.6h-1.5v5.7h-2.1v-5.6H473.4z"/>
	<path class="st1" d="M477.6,154.7c0-2.3,1.2-3.8,3.4-3.8c2.4,0,3.4,1.8,3.4,3.8v0.6h-4.7v0.1c0,1,0.5,1.6,1.6,1.6
		c0.9,0,1.3-0.4,1.8-0.9l1,1.3c-0.7,0.8-1.7,1.2-3.1,1.2C478.9,158.6,477.6,157.1,477.6,154.7z M479.7,153.9v0.1h2.6v-0.1
		c0-0.9-0.4-1.5-1.2-1.5S479.7,153,479.7,153.9z"/>
	<path class="st1" d="M485.5,154.7c0-2.4,1.2-3.8,3.4-3.8c1.5,0,2.5,0.7,2.9,1.9l-1.7,0.7c-0.1-0.6-0.5-1-1.3-1s-1.3,0.6-1.3,1.5
		v1.4c0,0.9,0.4,1.5,1.3,1.5c0.8,0,1.2-0.5,1.4-1.1l1.6,0.7c-0.5,1.4-1.5,2-3,2C486.7,158.6,485.5,157.1,485.5,154.7z"/>
	<path class="st1" d="M495.7,158.4c-1.4,0-2.2-0.7-2.2-2.1v-3.6h-1V151h0.5c0.6,0,0.7-0.3,0.7-0.8V149h1.9v2h1.5v1.6h-1.5v4.1h1.3
		v1.6L495.7,158.4L495.7,158.4z"/>
	<path class="st1" d="M498,154.7c0-2.3,1.2-3.8,3.4-3.8c2.4,0,3.4,1.8,3.4,3.8v0.6h-4.7v0.1c0,1,0.5,1.6,1.6,1.6
		c0.9,0,1.3-0.4,1.8-0.9l1,1.3c-0.7,0.8-1.7,1.2-3.1,1.2C499.3,158.6,498,157.1,498,154.7z M500.2,153.9v0.1h2.6v-0.1
		c0-0.9-0.4-1.5-1.2-1.5S500.2,153,500.2,153.9z"/>
	<path class="st1" d="M510.9,157.2L510.9,157.2c-0.3,0.8-1.1,1.4-2,1.4c-1.9,0-2.8-1.4-2.8-3.9s1-3.8,2.8-3.8c1,0,1.8,0.6,2,1.4h0.1
		V148h2.1v10.4H511L510.9,157.2L510.9,157.2z M510.9,155.8v-2.2c0-0.7-0.6-1.1-1.4-1.1s-1.4,0.6-1.4,1.5v1.3c0,0.9,0.6,1.5,1.4,1.5
		S510.9,156.5,510.9,155.8z"/>
	<path class="st1" d="M518.2,148h2.1v4.2h0.1c0.2-0.8,1-1.4,2-1.4c1.9,0,2.8,1.3,2.8,3.8s-1,3.9-2.8,3.9c-1,0-1.8-0.6-2-1.4h-0.1
		v1.2h-2.1V148z M522.9,155.4v-1.3c0-0.9-0.6-1.5-1.4-1.5s-1.4,0.4-1.4,1.1v2.2c0,0.7,0.6,1.1,1.4,1.1S522.9,156.3,522.9,155.4z"/>
	<path class="st1" d="M531,151h1.9l-2.8,8.5c-0.4,1.1-1,1.7-2.3,1.7h-1.3v-1.6h1.4l0.3-0.8l-2.6-7.7h2.1l1.1,3.4l0.5,2.1h0.1
		l0.5-2.1L531,151z"/>
	<path class="st1" d="M542.7,158.4c-0.7,0-1.3-0.5-1.4-1.3h-0.1c-0.2,1-1,1.5-2.2,1.5c-1.5,0-2.3-0.9-2.3-2.1c0-1.6,1.2-2.3,3.2-2.3
		h1.2v-0.5c0-0.7-0.4-1.2-1.2-1.2s-1.3,0.4-1.6,0.9l-1.2-1.1c0.6-0.9,1.4-1.4,3-1.4c2.1,0,3.1,1,3.1,2.7v3.2h0.7v1.6L542.7,158.4
		L542.7,158.4z M541.1,156.2v-0.9h-1c-0.8,0-1.2,0.3-1.2,0.8v0.2c0,0.5,0.3,0.8,1,0.8S541.1,156.8,541.1,156.2z"/>
	<path class="st1" d="M545.1,149.2v-0.3c0-0.6,0.4-1,1.2-1s1.2,0.4,1.2,1v0.3c0,0.6-0.4,1-1.2,1
		C545.5,150.3,545.1,149.8,545.1,149.2z M545.3,151h2.1v7.4h-2.1V151z"/>
	<path class="st1" d="M549.3,158.4V151h2.1v1.6h0.1c0.2-0.8,0.7-1.6,1.9-1.6h0.4v1.9h-0.5c-1.2,0-1.8,0.3-1.8,1.1v4.3L549.3,158.4
		L549.3,158.4z"/>
	<path class="st1" d="M558.2,151h2.1v1.2h0.1c0.2-0.8,1-1.4,2-1.4c1.9,0,2.8,1.3,2.8,3.8s-1,3.9-2.8,3.9c-1,0-1.8-0.6-2-1.4h-0.1v4
		h-2.1V151z M563,155.4v-1.3c0-0.9-0.6-1.5-1.4-1.5s-1.4,0.4-1.4,1.1v2.2c0,0.7,0.6,1.1,1.4,1.1S563,156.3,563,155.4z"/>
	<path class="st1" d="M566.3,154.7c0-2.4,1.3-3.8,3.4-3.8s3.4,1.5,3.4,3.8s-1.3,3.9-3.4,3.9S566.3,157.1,566.3,154.7z M571,155.5
		V154c0-0.9-0.5-1.5-1.3-1.5s-1.3,0.5-1.3,1.5v1.5c0,0.9,0.5,1.5,1.3,1.5S571,156.4,571,155.5z"/>
	<path class="st1" d="M576.7,158.4c-1.4,0-2.1-0.7-2.1-2V148h2.1v8.8h0.9v1.6L576.7,158.4L576.7,158.4z"/>
	<path class="st1" d="M580.8,158.4c-1.4,0-2.1-0.7-2.1-2V148h2.1v8.8h0.9v1.6L580.8,158.4L580.8,158.4z"/>
	<path class="st1" d="M587.4,157.2L587.4,157.2c-0.3,0.7-0.9,1.4-2.1,1.4c-1.5,0-2.3-1.1-2.3-2.9V151h2.1v4.4c0,0.9,0.3,1.4,1,1.4
		c0.6,0,1.3-0.4,1.3-1.1V151h2.1v7.4h-2.1V157.2z"/>
	<path class="st1" d="M593.9,158.4c-1.4,0-2.2-0.7-2.2-2.1v-3.6h-1V151h0.5c0.6,0,0.7-0.3,0.7-0.8V149h1.9v2h1.5v1.6h-1.5v4.1h1.3
		v1.6L593.9,158.4L593.9,158.4z"/>
	<path class="st1" d="M596.6,149.2v-0.3c0-0.6,0.4-1,1.2-1s1.2,0.4,1.2,1v0.3c0,0.6-0.4,1-1.2,1
		C596.9,150.3,596.6,149.8,596.6,149.2z M596.7,151h2.1v7.4h-2.1V151z"/>
	<path class="st1" d="M600.3,154.7c0-2.4,1.3-3.8,3.4-3.8s3.4,1.5,3.4,3.8s-1.3,3.9-3.4,3.9S600.3,157.1,600.3,154.7z M605,155.5
		V154c0-0.9-0.5-1.5-1.3-1.5s-1.3,0.5-1.3,1.5v1.5c0,0.9,0.5,1.5,1.3,1.5S605,156.4,605,155.5z"/>
	<path class="st1" d="M608.6,158.4V151h2.1v1.2h0.1c0.3-0.8,0.9-1.4,2-1.4c1.5,0,2.3,1.1,2.3,2.9v4.6H613V154c0-0.9-0.3-1.4-1-1.4
		s-1.3,0.3-1.3,1.1v4.8h-2.1V158.4z"/>
</g>
<g class="st0">
	<path class="st1" d="M331.3,178.4h-5.5v-1l2.7-2.5c0.8-0.7,1.4-1.6,1.4-2.4v-0.1c0-0.9-0.5-1.6-1.5-1.6s-1.5,0.6-1.7,1.4l-0.9-0.3
		c0.3-1,1.1-2,2.7-2s2.6,1,2.6,2.4c0,1.3-0.8,2.2-1.8,3.2l-2.3,2h4.4v0.9H331.3z"/>
	<path class="st1" d="M332.8,176.1c0-1.1,0.7-1.8,1.7-2.1l0,0c-0.9-0.3-1.4-1-1.4-2c0-1.3,1-2.1,2.7-2.1s2.7,0.8,2.7,2.1
		c0,1-0.6,1.7-1.4,2v0.1c1,0.3,1.7,0.9,1.7,2.1c0,1.4-1,2.4-2.9,2.4C333.8,178.5,332.8,177.5,332.8,176.1z M337.6,176.2v-0.3
		c0-0.9-0.7-1.5-1.8-1.5c-1.2,0-1.8,0.6-1.8,1.5v0.3c0,0.9,0.7,1.5,1.8,1.5S337.6,177.1,337.6,176.2z M337.3,172.3v-0.2
		c0-0.9-0.6-1.3-1.6-1.3s-1.6,0.5-1.6,1.3v0.2c0,0.9,0.6,1.3,1.6,1.3C336.8,173.6,337.3,173.1,337.3,172.3z"/>
	<path class="st1" d="M340,176.1c0-1.1,0.7-1.8,1.7-2.1l0,0c-0.9-0.3-1.4-1-1.4-2c0-1.3,1-2.1,2.7-2.1s2.7,0.8,2.7,2.1
		c0,1-0.6,1.7-1.4,2v0.1c1,0.3,1.7,0.9,1.7,2.1c0,1.4-1,2.4-2.9,2.4C341,178.5,340,177.5,340,176.1z M344.8,176.2v-0.3
		c0-0.9-0.7-1.5-1.8-1.5c-1.2,0-1.8,0.6-1.8,1.5v0.3c0,0.9,0.7,1.5,1.8,1.5C344.1,177.7,344.8,177.1,344.8,176.2z M344.5,172.3v-0.2
		c0-0.9-0.6-1.3-1.6-1.3s-1.6,0.5-1.6,1.3v0.2c0,0.9,0.6,1.3,1.6,1.3C344,173.6,344.5,173.1,344.5,172.3z"/>
	<path class="st1" d="M350.4,178.4v-6.2h1v1l0,0c0.3-0.6,0.7-1.2,1.7-1.2c0.8,0,1.6,0.4,1.9,1.3l0,0c0.2-0.7,0.8-1.3,1.9-1.3
		c1.3,0,2,0.9,2,2.4v4h-1v-3.8c0-1.1-0.4-1.7-1.4-1.7c-0.8,0-1.5,0.4-1.5,1.2v4.3h-1v-3.8c0-1.1-0.4-1.7-1.3-1.7
		c-0.8,0-1.5,0.4-1.5,1.2v4.3H350.4z"/>
	<path class="st1" d="M360.7,170.2V170c0-0.3,0.2-0.5,0.6-0.5s0.6,0.2,0.6,0.5v0.2c0,0.3-0.2,0.5-0.6,0.5
		C360.9,170.8,360.7,170.5,360.7,170.2z M360.9,172.2h1v6.2h-1V172.2z"/>
	<path class="st1" d="M364.9,178.4c-0.7,0-1-0.4-1-1v-7.9h1v8h0.9v0.8L364.9,178.4L364.9,178.4z"/>
	<path class="st1" d="M368.1,178.4c-0.7,0-1-0.4-1-1v-7.9h1v8h0.9v0.8L368.1,178.4L368.1,178.4z"/>
	<path class="st1" d="M370.2,170.2V170c0-0.3,0.2-0.5,0.6-0.5s0.6,0.2,0.6,0.5v0.2c0,0.3-0.2,0.5-0.6,0.5
		C370.4,170.8,370.2,170.5,370.2,170.2z M370.3,172.2h1v6.2h-1V172.2z"/>
	<path class="st1" d="M372.9,175.3c0-2,1.1-3.2,2.8-3.2c1.7,0,2.8,1.3,2.8,3.2c0,2-1.1,3.2-2.8,3.2S372.9,177.3,372.9,175.3z
		 M377.4,175.8v-0.9c0-1.3-0.7-1.9-1.8-1.9c-1,0-1.8,0.6-1.8,1.9v0.9c0,1.3,0.7,1.9,1.8,1.9C376.7,177.7,377.4,177.1,377.4,175.8z"
		/>
	<path class="st1" d="M380,178.4v-6.2h1v1l0,0c0.3-0.7,0.8-1.2,1.8-1.2c1.3,0,2.1,0.9,2.1,2.4v4h-1v-3.8c0-1.1-0.5-1.7-1.4-1.7
		c-0.8,0-1.5,0.4-1.5,1.2v4.3H380z"/>
	<path class="st1" d="M389.7,172.2h1v1l0,0c0.3-0.8,1-1.2,1.8-1.2c1.5,0,2.5,1.3,2.5,3.2c0,2-1,3.2-2.5,3.2c-0.9,0-1.4-0.4-1.8-1.2
		l0,0v3.4h-1V172.2z M394,175.8v-1.1c0-1.1-0.7-1.8-1.8-1.8c-0.9,0-1.6,0.5-1.6,1.2v2.3c0,0.8,0.7,1.3,1.6,1.3
		C393.3,177.7,394,176.9,394,175.8z"/>
	<path class="st1" d="M396.2,175.3c0-2,1.1-3.2,2.8-3.2c1.7,0,2.7,1.3,2.7,3v0.5h-4.4v0.3c0,1.1,0.7,1.9,1.8,1.9
		c0.8,0,1.4-0.4,1.7-1.1l0.7,0.5c-0.4,0.8-1.3,1.4-2.4,1.4C397.3,178.5,396.2,177.3,396.2,175.3z M397.2,174.7L397.2,174.7l3.4,0.1
		v-0.1c0-1.1-0.7-1.8-1.6-1.8C397.9,172.9,397.2,173.7,397.2,174.7z"/>
	<path class="st1" d="M402.8,175.3c0-2,1.1-3.2,2.8-3.2c1.7,0,2.8,1.3,2.8,3.2c0,2-1.1,3.2-2.8,3.2S402.8,177.3,402.8,175.3z
		 M407.3,175.8v-0.9c0-1.3-0.7-1.9-1.8-1.9c-1,0-1.8,0.6-1.8,1.9v0.9c0,1.3,0.7,1.9,1.8,1.9C406.6,177.7,407.3,177.1,407.3,175.8z"
		/>
	<path class="st1" d="M410,172.2h1v1l0,0c0.3-0.8,1-1.2,1.8-1.2c1.5,0,2.5,1.3,2.5,3.2c0,2-1,3.2-2.5,3.2c-0.9,0-1.4-0.4-1.8-1.2
		l0,0v3.4h-1V172.2z M414.3,175.8v-1.1c0-1.1-0.7-1.8-1.8-1.8c-0.9,0-1.6,0.5-1.6,1.2v2.3c0,0.8,0.7,1.3,1.6,1.3
		C413.6,177.7,414.3,176.9,414.3,175.8z"/>
	<path class="st1" d="M417.9,178.4c-0.7,0-1-0.4-1-1v-7.9h1v8h0.9v0.8L417.9,178.4L417.9,178.4z"/>
	<path class="st1" d="M419.7,175.3c0-2,1.1-3.2,2.8-3.2c1.7,0,2.7,1.3,2.7,3v0.5h-4.4v0.3c0,1.1,0.7,1.9,1.8,1.9
		c0.8,0,1.4-0.4,1.7-1.1l0.7,0.5c-0.4,0.8-1.3,1.4-2.4,1.4C420.8,178.5,419.7,177.3,419.7,175.3z M420.7,174.7L420.7,174.7l3.4,0.1
		v-0.1c0-1.1-0.7-1.8-1.6-1.8C421.5,172.9,420.7,173.7,420.7,174.7z"/>
	<path class="st1" d="M427.9,177.7v0.2c0,0.6-0.4,1.5-1.1,2.1H426c0.5-0.5,0.8-0.9,0.9-1.5c-0.3-0.1-0.5-0.3-0.5-0.6v-0.2
		c0-0.4,0.2-0.7,0.7-0.7S427.9,177.3,427.9,177.7z"/>
	<path class="st1" d="M437.1,178.4c-0.7,0-1-0.4-1.1-1l0,0c-0.3,0.8-0.9,1.2-1.8,1.2c-1.3,0-2.1-0.7-2.1-1.9s0.8-1.8,2.6-1.8h1.2
		v-0.6c0-0.9-0.5-1.4-1.5-1.4c-0.7,0-1.2,0.4-1.6,0.9l-0.6-0.5c0.3-0.7,1.1-1.2,2.2-1.2c1.5,0,2.4,0.8,2.4,2.1v3.4h0.7v0.8H437.1z
		 M436,176.6v-1h-1.3c-1.1,0-1.6,0.3-1.6,0.9v0.3c0,0.6,0.5,1,1.2,1C435.3,177.7,436,177.2,436,176.6z"/>
	<path class="st1" d="M440.1,178.4c-0.7,0-1-0.4-1-1v-7.9h1v8h0.9v0.8L440.1,178.4L440.1,178.4z"/>
	<path class="st1" d="M443.3,178.4c-0.7,0-1-0.4-1-1v-7.9h1v8h0.9v0.8L443.3,178.4L443.3,178.4z"/>
	<path class="st1" d="M448.2,170.2V170c0-0.3,0.2-0.5,0.6-0.5s0.6,0.2,0.6,0.5v0.2c0,0.3-0.2,0.5-0.6,0.5
		C448.4,170.8,448.2,170.5,448.2,170.2z M448.3,172.2h1v6.2h-1V172.2z"/>
	<path class="st1" d="M451.3,178.4v-6.2h1v1l0,0c0.3-0.7,0.8-1.2,1.8-1.2c1.3,0,2.1,0.9,2.1,2.4v4h-1v-3.8c0-1.1-0.5-1.7-1.4-1.7
		c-0.8,0-1.5,0.4-1.5,1.2v4.3H451.3z"/>
	<path class="st1" d="M461,178.4v-6.2h1v1l0,0c0.3-0.7,0.8-1.2,1.8-1.2c1.3,0,2.1,0.9,2.1,2.4v4h-1v-3.8c0-1.1-0.5-1.7-1.4-1.7
		c-0.8,0-1.5,0.4-1.5,1.2v4.3H461z"/>
	<path class="st1" d="M467.3,175.3c0-2,1.1-3.2,2.8-3.2s2.8,1.3,2.8,3.2c0,2-1.1,3.2-2.8,3.2S467.3,177.3,467.3,175.3z M471.9,175.8
		v-0.9c0-1.3-0.7-1.9-1.8-1.9s-1.8,0.6-1.8,1.9v0.9c0,1.3,0.7,1.9,1.8,1.9S471.9,177.1,471.9,175.8z"/>
	<path class="st1" d="M474.5,178.4v-6.2h1v1.1h0.1c0.2-0.6,0.8-1.1,1.8-1.1h0.4v1h-0.6c-1,0-1.7,0.4-1.7,1v4.2H474.5z"/>
	<path class="st1" d="M480.3,178.4c-0.7,0-1-0.4-1-1v-4.3h-1v-0.8h0.6c0.4,0,0.5-0.1,0.5-0.6v-1.2h0.9v1.7h1.4v0.8h-1.4v4.5h1.3v0.8
		h-1.3V178.4z"/>
	<path class="st1" d="M483.2,169.5h1v3.7l0,0c0.3-0.7,0.8-1.2,1.8-1.2c1.3,0,2.1,0.9,2.1,2.4v4h-1v-3.8c0-1.1-0.5-1.7-1.4-1.7
		c-0.8,0-1.5,0.4-1.5,1.2v4.3h-1V169.5z"/>
	<path class="st1" d="M489.5,175.3c0-2,1.1-3.2,2.8-3.2c1.7,0,2.7,1.3,2.7,3v0.5h-4.4v0.3c0,1.1,0.7,1.9,1.8,1.9
		c0.8,0,1.4-0.4,1.7-1.1l0.7,0.5c-0.4,0.8-1.3,1.4-2.4,1.4C490.6,178.5,489.5,177.3,489.5,175.3z M490.6,174.7L490.6,174.7l3.4,0.1
		v-0.1c0-1.1-0.7-1.8-1.6-1.8C491.3,172.9,490.6,173.7,490.6,174.7z"/>
	<path class="st1" d="M496.6,178.4v-6.2h1v1.1h0.1c0.2-0.6,0.8-1.1,1.8-1.1h0.4v1h-0.6c-1,0-1.7,0.4-1.7,1v4.2H496.6z"/>
	<path class="st1" d="M501,178.4v-6.2h1v1l0,0c0.3-0.7,0.8-1.2,1.8-1.2c1.3,0,2.1,0.9,2.1,2.4v4h-1v-3.8c0-1.1-0.5-1.7-1.4-1.7
		c-0.8,0-1.5,0.4-1.5,1.2v4.3H501z"/>
	<path class="st1" d="M510.3,178.4v-0.8h1.2v-6.7h-1.2V170h3.4v0.8h-1.2v6.7h1.2v0.8L510.3,178.4L510.3,178.4z"/>
	<path class="st1" d="M515.4,178.4v-6.2h1v1l0,0c0.3-0.7,0.8-1.2,1.8-1.2c1.3,0,2.1,0.9,2.1,2.4v4h-1v-3.8c0-1.1-0.5-1.7-1.4-1.7
		c-0.8,0-1.5,0.4-1.5,1.2v4.3H515.4z"/>
	<path class="st1" d="M526.2,177.4L526.2,177.4c-0.4,0.8-1,1.2-1.9,1.2c-1.5,0-2.5-1.3-2.5-3.2c0-2,1-3.2,2.5-3.2
		c0.9,0,1.5,0.4,1.8,1.2l0,0v-3.7h1v8.9h-1v-1.2H526.2z M526.2,176.4v-2.3c0-0.7-0.7-1.2-1.6-1.2c-1.1,0-1.8,0.7-1.8,1.8v1.1
		c0,1.1,0.7,1.8,1.8,1.8C525.5,177.7,526.2,177.2,526.2,176.4z"/>
	<path class="st1" d="M529.1,170.2V170c0-0.3,0.2-0.5,0.6-0.5c0.4,0,0.6,0.2,0.6,0.5v0.2c0,0.3-0.2,0.5-0.6,0.5
		C529.3,170.8,529.1,170.5,529.1,170.2z M529.2,172.2h1v6.2h-1V172.2z"/>
	<path class="st1" d="M536.7,178.4c-0.7,0-1-0.4-1.1-1h-0.1c-0.3,0.8-0.9,1.2-1.8,1.2c-1.3,0-2.1-0.7-2.1-1.9s0.8-1.8,2.6-1.8h1.2
		v-0.6c0-0.9-0.5-1.4-1.5-1.4c-0.7,0-1.2,0.4-1.6,0.9l-0.6-0.5c0.3-0.7,1.1-1.2,2.2-1.2c1.5,0,2.4,0.8,2.4,2.1v3.4h0.7v0.8H536.7z
		 M535.6,176.6v-1h-1.3c-1.1,0-1.6,0.3-1.6,0.9v0.3c0,0.6,0.5,1,1.2,1C534.9,177.7,535.6,177.2,535.6,176.6z"/>
	<path class="st1" d="M540.8,172.2h0.9l0.7,2.7l0.7,2.7l0,0l0.8-2.7l0.8-2.7h0.9l0.8,2.7l0.8,2.7l0,0l0.6-2.7l0.7-2.7h0.9l-1.6,6.2
		h-1.2l-0.9-3l-0.5-1.9l0,0l-0.5,1.9l-0.9,3h-1.2L540.8,172.2z"/>
	<path class="st1" d="M550.2,175.3c0-2,1.1-3.2,2.8-3.2s2.8,1.3,2.8,3.2c0,2-1.1,3.2-2.8,3.2S550.2,177.3,550.2,175.3z M554.7,175.8
		v-0.9c0-1.3-0.7-1.9-1.8-1.9s-1.8,0.6-1.8,1.9v0.9c0,1.3,0.7,1.9,1.8,1.9S554.7,177.1,554.7,175.8z"/>
	<path class="st1" d="M561.1,177.4L561.1,177.4c-0.3,0.6-0.8,1.2-1.8,1.2c-1.3,0-2.1-0.9-2.1-2.4v-4h1v3.8c0,1.1,0.5,1.7,1.4,1.7
		c0.8,0,1.5-0.4,1.5-1.2v-4.3h1v6.2h-1L561.1,177.4L561.1,177.4z"/>
	<path class="st1" d="M565.2,178.4c-0.7,0-1-0.4-1-1v-7.9h1v8h0.9v0.8L565.2,178.4L565.2,178.4z"/>
	<path class="st1" d="M571.4,177.4L571.4,177.4c-0.4,0.8-1,1.2-1.9,1.2c-1.5,0-2.5-1.3-2.5-3.2c0-2,1-3.2,2.5-3.2
		c0.9,0,1.5,0.4,1.8,1.2l0,0v-3.7h1v8.9h-1v-1.2H571.4z M571.4,176.4v-2.3c0-0.7-0.7-1.2-1.6-1.2c-1.1,0-1.8,0.7-1.8,1.8v1.1
		c0,1.1,0.7,1.8,1.8,1.8C570.6,177.7,571.4,177.2,571.4,176.4z"/>
	<path class="st1" d="M578.2,178.4c-0.7,0-1-0.4-1-1v-7.9h1v8h0.9v0.8L578.2,178.4L578.2,178.4z"/>
	<path class="st1" d="M580.4,170.2V170c0-0.3,0.2-0.5,0.6-0.5c0.4,0,0.6,0.2,0.6,0.5v0.2c0,0.3-0.2,0.5-0.6,0.5
		C580.5,170.8,580.4,170.5,580.4,170.2z M580.5,172.2h1v6.2h-1V172.2z"/>
	<path class="st1" d="M584.8,178.4l-2.2-6.2h1l1.1,3.1l0.7,2.1h0.1l0.7-2.1l1.1-3.1h0.9l-2.2,6.2H584.8z"/>
	<path class="st1" d="M588.8,175.3c0-2,1.1-3.2,2.8-3.2s2.7,1.3,2.7,3v0.5h-4.4v0.3c0,1.1,0.7,1.9,1.8,1.9c0.8,0,1.4-0.4,1.7-1.1
		l0.7,0.5c-0.4,0.8-1.3,1.4-2.4,1.4C589.9,178.5,588.8,177.3,588.8,175.3z M589.8,174.7L589.8,174.7l3.4,0.1v-0.1
		c0-1.1-0.7-1.8-1.6-1.8C590.6,172.9,589.8,173.7,589.8,174.7z"/>
</g>
<g class="st0">
	<path class="st1" d="M330.4,193.4c-0.7,0-1-0.4-1.1-1h-0.1c-0.3,0.8-0.9,1.2-1.8,1.2c-1.3,0-2.1-0.7-2.1-1.9s0.8-1.8,2.6-1.8h1.2
		v-0.6c0-0.9-0.5-1.4-1.5-1.4c-0.7,0-1.2,0.4-1.6,0.9l-0.6-0.5c0.3-0.7,1.1-1.2,2.2-1.2c1.5,0,2.4,0.8,2.4,2.1v3.4h0.7v0.8H330.4z
		 M329.3,191.6v-1H328c-1.1,0-1.6,0.3-1.6,0.9v0.3c0,0.6,0.5,1,1.2,1C328.6,192.7,329.3,192.2,329.3,191.6z"/>
	<path class="st1" d="M333.7,193.4c-0.7,0-1-0.4-1-1v-4.3h-1v-0.8h0.6c0.4,0,0.5-0.1,0.5-0.6v-1.2h0.9v1.7h1.4v0.8h-1.4v4.5h1.3v0.8
		h-1.3V193.4z"/>
	<path class="st1" d="M340.4,193.4c-0.7,0-1-0.4-1-1v-7.9h1v8h0.9v0.8L340.4,193.4L340.4,193.4z"/>
	<path class="st1" d="M342.2,190.3c0-2,1.1-3.2,2.8-3.2c1.7,0,2.7,1.3,2.7,3v0.5h-4.4v0.3c0,1.1,0.7,1.9,1.8,1.9
		c0.8,0,1.4-0.4,1.7-1.1l0.7,0.5c-0.4,0.8-1.3,1.4-2.4,1.4C343.3,193.5,342.2,192.3,342.2,190.3z M343.2,189.7L343.2,189.7l3.4,0.1
		v-0.1c0-1.1-0.7-1.8-1.6-1.8C343.9,187.9,343.2,188.7,343.2,189.7z"/>
	<path class="st1" d="M353.8,193.4c-0.7,0-1-0.4-1.1-1h-0.1c-0.3,0.8-0.9,1.2-1.8,1.2c-1.3,0-2.1-0.7-2.1-1.9s0.8-1.8,2.6-1.8h1.2
		v-0.6c0-0.9-0.5-1.4-1.5-1.4c-0.7,0-1.2,0.4-1.6,0.9l-0.6-0.5c0.3-0.7,1.1-1.2,2.2-1.2c1.5,0,2.4,0.8,2.4,2.1v3.4h0.7v0.8H353.8z
		 M352.6,191.6v-1h-1.3c-1.1,0-1.6,0.3-1.6,0.9v0.3c0,0.6,0.5,1,1.2,1C351.9,192.7,352.6,192.2,352.6,191.6z"/>
	<path class="st1" d="M355.1,192.3l0.7-0.6c0.5,0.6,1.1,0.9,1.8,0.9c0.8,0,1.3-0.4,1.3-1c0-0.5-0.3-0.9-1.1-1l-0.5-0.1
		c-1.1-0.2-2-0.6-2-1.8s0.9-1.8,2.2-1.8c1,0,1.7,0.4,2.2,1l-0.6,0.6c-0.3-0.4-0.8-0.8-1.6-0.8c-0.8,0-1.2,0.4-1.2,1s0.4,0.8,1.2,1
		l0.5,0.1c1.4,0.2,1.9,0.8,1.9,1.7c0,1.2-0.9,1.9-2.3,1.9C356.4,193.5,355.6,193.1,355.1,192.3z"/>
	<path class="st1" d="M362.8,193.4c-0.7,0-1-0.4-1-1v-4.3h-1v-0.8h0.6c0.4,0,0.5-0.1,0.5-0.6v-1.2h0.9v1.7h1.4v0.8h-1.4v4.5h1.3v0.8
		h-1.3V193.4z"/>
	<path class="st1" d="M369.5,193.4l3.2-7.5h-3.6v1.6h-0.9V185h5.5v0.9l-3.1,7.5H369.5z"/>
	<path class="st1" d="M382.3,187.2h0.9l-2.8,7.6c-0.3,0.7-0.5,1-1.4,1h-0.5V195h1l0.5-1.3l-2.3-6.4h1l1.5,4.2l0.3,1h0.1l0.3-1
		L382.3,187.2z"/>
	<path class="st1" d="M384,190.3c0-2,1.1-3.2,2.8-3.2c1.7,0,2.7,1.3,2.7,3v0.5H385v0.3c0,1.1,0.7,1.9,1.8,1.9c0.8,0,1.4-0.4,1.7-1.1
		l0.7,0.5c-0.4,0.8-1.3,1.4-2.4,1.4C385.1,193.5,384,192.3,384,190.3z M385,189.7L385,189.7l3.4,0.1v-0.1c0-1.1-0.7-1.8-1.6-1.8
		C385.7,187.9,385,188.7,385,189.7z"/>
	<path class="st1" d="M395.5,193.4c-0.7,0-1-0.4-1.1-1h-0.1c-0.3,0.8-0.9,1.2-1.8,1.2c-1.3,0-2.1-0.7-2.1-1.9s0.8-1.8,2.6-1.8h1.2
		v-0.6c0-0.9-0.5-1.4-1.5-1.4c-0.7,0-1.2,0.4-1.6,0.9l-0.6-0.5c0.3-0.7,1.1-1.2,2.2-1.2c1.5,0,2.4,0.8,2.4,2.1v3.4h0.7v0.8H395.5z
		 M394.4,191.6v-1h-1.3c-1.1,0-1.6,0.3-1.6,0.9v0.3c0,0.6,0.5,1,1.2,1C393.7,192.7,394.4,192.2,394.4,191.6z"/>
	<path class="st1" d="M397.4,193.4v-6.2h1v1.1h0.1c0.2-0.6,0.8-1.1,1.8-1.1h0.4v1H400c-1,0-1.7,0.4-1.7,1v4.2H397.4z"/>
	<path class="st1" d="M401.2,192.3l0.7-0.6c0.5,0.6,1.1,0.9,1.8,0.9c0.8,0,1.3-0.4,1.3-1c0-0.5-0.3-0.9-1.1-1l-0.5-0.1
		c-1.1-0.2-2-0.6-2-1.8s0.9-1.8,2.2-1.8c1,0,1.7,0.4,2.2,1l-0.6,0.6c-0.3-0.4-0.8-0.8-1.6-0.8c-0.8,0-1.2,0.4-1.2,1s0.4,0.8,1.2,1
		l0.5,0.1c1.4,0.2,1.9,0.8,1.9,1.7c0,1.2-0.9,1.9-2.3,1.9C402.5,193.5,401.8,193.1,401.2,192.3z"/>
	<path class="st1" d="M411.5,193.4c-0.7,0-1-0.4-1-1v-7.9h1v8h0.9v0.8L411.5,193.4L411.5,193.4z"/>
	<path class="st1" d="M413.3,190.3c0-2,1.1-3.2,2.8-3.2s2.8,1.3,2.8,3.2c0,2-1.1,3.2-2.8,3.2S413.3,192.3,413.3,190.3z M417.9,190.8
		v-0.9c0-1.3-0.7-1.9-1.8-1.9s-1.8,0.6-1.8,1.9v0.9c0,1.3,0.7,1.9,1.8,1.9S417.9,192.1,417.9,190.8z"/>
	<path class="st1" d="M420.5,193.4v-6.2h1v1l0,0c0.3-0.7,0.8-1.2,1.8-1.2c1.3,0,2.1,0.9,2.1,2.4v4h-1v-3.8c0-1.1-0.5-1.7-1.4-1.7
		c-0.8,0-1.5,0.4-1.5,1.2v4.3H420.5z"/>
	<path class="st1" d="M429.5,195.9c-1.9,0-2.7-0.6-2.7-1.5c0-0.7,0.4-1,1-1.2v-0.1c-0.3-0.2-0.6-0.4-0.6-0.9c0-0.6,0.4-0.9,1.1-1.1
		l0,0c-0.7-0.3-1.2-1-1.2-1.9c0-1.3,0.9-2.1,2.3-2.1c0.4,0,0.8,0.1,1.2,0.2v-0.1c0-0.5,0.2-0.8,0.7-0.8h0.9v0.8H431v0.4
		c0.4,0.4,0.7,0.9,0.7,1.6c0,1.3-0.9,2.1-2.3,2.1c-0.2,0-0.4,0-0.6-0.1c-0.4,0.1-0.8,0.3-0.8,0.7s0.4,0.5,0.9,0.5h1.3
		c1.5,0,2.2,0.6,2.2,1.6C432.5,195.4,431.5,195.9,429.5,195.9z M430.3,193.3h-2.1c-0.4,0.2-0.6,0.5-0.6,0.8c0,0.5,0.4,1,1.3,1h0.9
		c1.1,0,1.7-0.3,1.7-1C431.6,193.7,431.3,193.3,430.3,193.3z M430.8,189.4V189c0-0.8-0.5-1.2-1.3-1.2s-1.3,0.4-1.3,1.2v0.3
		c0,0.8,0.5,1.2,1.3,1.2S430.8,190.2,430.8,189.4z"/>
	<path class="st1" d="M433.1,190.3c0-2,1.1-3.2,2.8-3.2c1.7,0,2.7,1.3,2.7,3v0.5h-4.4v0.3c0,1.1,0.7,1.9,1.8,1.9
		c0.8,0,1.4-0.4,1.7-1.1l0.7,0.5c-0.4,0.8-1.3,1.4-2.4,1.4C434.2,193.5,433.1,192.3,433.1,190.3z M434.1,189.7L434.1,189.7l3.4,0.1
		v-0.1c0-1.1-0.7-1.8-1.6-1.8C434.8,187.9,434.1,188.7,434.1,189.7z"/>
	<path class="st1" d="M440.2,193.4v-6.2h1v1.1h0.1c0.2-0.6,0.8-1.1,1.8-1.1h0.4v1h-0.6c-1,0-1.7,0.4-1.7,1v4.2H440.2z"/>
	<path class="st1" d="M446.9,190.3c0-2,1.1-3.2,2.8-3.2s2.8,1.3,2.8,3.2c0,2-1.1,3.2-2.8,3.2S446.9,192.3,446.9,190.3z M451.5,190.8
		v-0.9c0-1.3-0.7-1.9-1.8-1.9c-1,0-1.8,0.6-1.8,1.9v0.9c0,1.3,0.7,1.9,1.8,1.9S451.5,192.1,451.5,190.8z"/>
	<path class="st1" d="M454.1,193.4v-6.2h1v1l0,0c0.3-0.7,0.8-1.2,1.8-1.2c1.3,0,2.1,0.9,2.1,2.4v4h-1v-3.8c0-1.1-0.5-1.7-1.4-1.7
		c-0.8,0-1.5,0.4-1.5,1.2v4.3H454.1z"/>
	<path class="st1" d="M468.3,193.4c-0.7,0-1-0.4-1.1-1h-0.1c-0.3,0.8-0.9,1.2-1.8,1.2c-1.3,0-2.1-0.7-2.1-1.9s0.8-1.8,2.6-1.8h1.2
		v-0.6c0-0.9-0.5-1.4-1.5-1.4c-0.7,0-1.2,0.4-1.6,0.9l-0.6-0.5c0.3-0.7,1.1-1.2,2.2-1.2c1.5,0,2.4,0.8,2.4,2.1v3.4h0.7v0.8H468.3z
		 M467.1,191.6v-1h-1.3c-1.1,0-1.6,0.3-1.6,0.9v0.3c0,0.6,0.5,1,1.2,1C466.4,192.7,467.1,192.2,467.1,191.6z"/>
	<path class="st1" d="M471.4,193.4l-2.2-6.2h1l1.1,3.1l0.7,2.1h0.1l0.7-2.1l1.1-3.1h0.9l-2.2,6.2H471.4z"/>
	<path class="st1" d="M475.4,190.3c0-2,1.1-3.2,2.8-3.2c1.7,0,2.7,1.3,2.7,3v0.5h-4.4v0.3c0,1.1,0.7,1.9,1.8,1.9
		c0.8,0,1.4-0.4,1.7-1.1l0.7,0.5c-0.4,0.8-1.3,1.4-2.4,1.4C476.5,193.5,475.4,192.3,475.4,190.3z M476.4,189.7L476.4,189.7l3.4,0.1
		v-0.1c0-1.1-0.7-1.8-1.6-1.8C477.2,187.9,476.4,188.7,476.4,189.7z"/>
	<path class="st1" d="M482.5,193.4v-6.2h1v1.1h0.1c0.2-0.6,0.8-1.1,1.8-1.1h0.4v1h-0.6c-1,0-1.7,0.4-1.7,1v4.2H482.5z"/>
	<path class="st1" d="M491.3,193.4c-0.7,0-1-0.4-1.1-1h-0.1c-0.3,0.8-0.9,1.2-1.8,1.2c-1.3,0-2.1-0.7-2.1-1.9s0.8-1.8,2.6-1.8h1.2
		v-0.6c0-0.9-0.5-1.4-1.5-1.4c-0.7,0-1.2,0.4-1.6,0.9l-0.6-0.5c0.3-0.7,1.1-1.2,2.2-1.2c1.5,0,2.4,0.8,2.4,2.1v3.4h0.7v0.8H491.3z
		 M490.2,191.6v-1h-1.3c-1.1,0-1.6,0.3-1.6,0.9v0.3c0,0.6,0.5,1,1.2,1C489.5,192.7,490.2,192.2,490.2,191.6z"/>
	<path class="st1" d="M495.4,195.9c-1.9,0-2.7-0.6-2.7-1.5c0-0.7,0.4-1,1-1.2v-0.1c-0.3-0.2-0.6-0.4-0.6-0.9c0-0.6,0.4-0.9,1.1-1.1
		l0,0c-0.7-0.3-1.2-1-1.2-1.9c0-1.3,0.9-2.1,2.3-2.1c0.4,0,0.8,0.1,1.2,0.2v-0.1c0-0.5,0.2-0.8,0.7-0.8h0.9v0.8H497v0.4
		c0.4,0.4,0.7,0.9,0.7,1.6c0,1.3-0.9,2.1-2.3,2.1c-0.2,0-0.4,0-0.6-0.1c-0.4,0.1-0.8,0.3-0.8,0.7s0.4,0.5,0.9,0.5h1.3
		c1.5,0,2.2,0.6,2.2,1.6C498.4,195.4,497.4,195.9,495.4,195.9z M496.3,193.3h-2.1c-0.4,0.2-0.6,0.5-0.6,0.8c0,0.5,0.4,1,1.3,1h0.9
		c1.1,0,1.7-0.3,1.7-1C497.5,193.7,497.2,193.3,496.3,193.3z M496.7,189.4V189c0-0.8-0.5-1.2-1.3-1.2s-1.3,0.4-1.3,1.2v0.3
		c0,0.8,0.5,1.2,1.3,1.2S496.7,190.2,496.7,189.4z"/>
	<path class="st1" d="M499,190.3c0-2,1.1-3.2,2.8-3.2c1.7,0,2.7,1.3,2.7,3v0.5H500v0.3c0,1.1,0.7,1.9,1.8,1.9c0.8,0,1.4-0.4,1.7-1.1
		l0.7,0.5c-0.4,0.8-1.3,1.4-2.4,1.4C500.1,193.5,499,192.3,499,190.3z M500,189.7L500,189.7l3.4,0.1v-0.1c0-1.1-0.7-1.8-1.6-1.8
		C500.8,187.9,500,188.7,500,189.7z"/>
</g>
<circle class="st2" cx="567.9" cy="718" r="2.1"/>
<circle class="st2" cx="545.5" cy="627.7" r="2.5"/>
<circle class="st3" cx="550.8" cy="596.8" r="2.2"/>
<circle class="st4" cx="313.8" cy="497.1" r="12.5"/>
<circle class="st4" cx="269.4" cy="511.5" r="11.8"/>
<circle class="st4" cx="292.2" cy="509.8" r="11.1"/>
<circle class="st5" cx="226.8" cy="536.9" r="10.2"/>
<circle class="st4" cx="258.8" cy="535.3" r="8.8"/>
<circle class="st4" cx="357.3" cy="467.4" r="7.4"/>
<circle class="st4" cx="330.3" cy="481" r="10.6"/>
<circle class="st4" cx="343.4" cy="469.6" r="6.8"/>
<circle class="st4" cx="310.9" cy="519.3" r="9.9"/>
<circle class="st5" cx="219.2" cy="556.2" r="10.2"/>
<ellipse transform="matrix(0.3162 -0.9487 0.9487 0.3162 -375.7654 635.2589)" class="st5" cx="252.8" cy="578.3" rx="10.5" ry="10.5"/>
<circle class="st5" cx="264" cy="561.7" r="8"/>
<circle class="st5" cx="243.7" cy="560.9" r="7.9"/>
<circle class="st3" cx="554.4" cy="260.6" r="2.1"/>
<circle class="st3" cx="560.7" cy="242.3" r="2.1"/>
<circle class="st3" cx="572.8" cy="251.3" r="2.3"/>
<circle class="st5" cx="566.5" cy="261.2" r="2.3"/>
<circle class="st2" cx="530.1" cy="251.6" r="2.1"/>
<circle class="st3" cx="543.1" cy="257.1" r="2.2"/>
<circle class="st3" cx="637.1" cy="241.4" r="2.1"/>
<circle class="st3" cx="626.7" cy="258.7" r="2.3"/>
<circle class="st2" cx="617.8" cy="219.5" r="2"/>
<circle class="st3" cx="600.9" cy="240.2" r="2.2"/>
<circle class="st3" cx="624.1" cy="246.2" r="2.2"/>
<circle class="st3" cx="604.6" cy="271.3" r="2.1"/>
<circle class="st3" cx="615.1" cy="234.2" r="2.1"/>
<circle class="st3" cx="617.6" cy="251.6" r="2.1"/>
<circle class="st3" cx="608.8" cy="266.9" r="2.1"/>
<circle class="st3" cx="595.3" cy="222.6" r="2.1"/>
<circle class="st3" cx="574.1" cy="235.9" r="2.1"/>
<circle class="st3" cx="586.6" cy="235.3" r="2.2"/>
<circle class="st4" cx="517.1" cy="274.7" r="4.6"/>
<circle class="st4" cx="511" cy="283.3" r="4.5"/>
<circle class="st4" cx="502.8" cy="277.4" r="3"/>
<circle class="st4" cx="550.6" cy="320.8" r="5.8"/>
<circle class="st4" cx="503.1" cy="283.8" r="3.4"/>
<circle class="st4" cx="533.3" cy="280.4" r="3.4"/>
<circle class="st6" cx="489.2" cy="294.4" r="5.4"/>
<circle class="st5" cx="554.3" cy="307.1" r="2.4"/>
<circle class="st4" cx="503.2" cy="290.6" r="3.4"/>
<circle class="st5" cx="572" cy="280.6" r="4.3"/>
<circle class="st4" cx="545.9" cy="329.4" r="3.1"/>
<circle class="st4" cx="529.7" cy="288.8" r="4.9"/>
<circle class="st4" cx="518.6" cy="291.5" r="4.7"/>
<circle class="st5" cx="560.2" cy="291.5" r="3.7"/>
<circle class="st4" cx="539.3" cy="325.9" r="4.4"/>
<circle class="st6" cx="495.3" cy="274.2" r="5.2"/>
<circle class="st4" cx="538.3" cy="286.1" r="4.1"/>
<circle class="st4" cx="550" cy="286.7" r="7.6"/>
<circle class="st4" cx="520" cy="282.9" r="4.1"/>
<circle class="st4" cx="552" cy="273.1" r="5.9"/>
<circle class="st4" cx="530" cy="273.6" r="4.1"/>
<circle class="st5" cx="598.5" cy="258.6" r="4.4"/>
<circle class="st5" cx="610.8" cy="253.6" r="5"/>
<circle class="st5" cx="592.6" cy="253.2" r="3.6"/>
<circle class="st5" cx="581.6" cy="272.8" r="4.2"/>
<circle class="st5" cx="578.4" cy="263.5" r="3.9"/>
<circle class="st5" cx="593.6" cy="267.4" r="4.4"/>
<circle class="st7" cx="434.1" cy="263.2" r="8.9"/>
<circle class="st8" cx="357.4" cy="301.7" r="3.2"/>
<circle class="st9" cx="356.8" cy="348.5" r="6.8"/>
<circle class="st10" cx="454" cy="333.7" r="7"/>
<circle class="st8" cx="405.2" cy="295.9" r="7.5"/>
<circle class="st10" cx="442.7" cy="295.2" r="7.2"/>
<circle class="st8" cx="364.8" cy="334.1" r="7.6"/>
<circle class="st8" cx="335.4" cy="306.9" r="5.5"/>
<circle class="st8" cx="393.1" cy="270.4" r="9.8"/>
<circle class="st9" cx="374.1" cy="350.6" r="10.6"/>
<circle class="st8" cx="330.8" cy="267" r="7.6"/>
<circle class="st10" cx="378.1" cy="332.9" r="5.7"/>
<circle class="st8" cx="379.2" cy="323.3" r="3.9"/>
<circle class="st9" cx="333.6" cy="337.2" r="5.2"/>
<circle class="st10" cx="449.9" cy="271.2" r="7.8"/>
<circle class="st9" cx="419.3" cy="296.2" r="5.2"/>
<circle class="st7" cx="447.7" cy="257.9" r="5.6"/>
<circle class="st9" cx="399.9" cy="256.7" r="4"/>
<circle class="st9" cx="430.8" cy="290.1" r="5.7"/>
<circle class="st9" cx="415.9" cy="249.5" r="13.6"/>
<circle class="st10" cx="398.7" cy="341.5" r="4.5"/>
<circle class="st8" cx="367.5" cy="312.9" r="11.9"/>
<circle class="st8" cx="378.8" cy="297.3" r="7.5"/>
<circle class="st9" cx="389.9" cy="334.4" r="6.2"/>
<circle class="st8" cx="357.2" cy="272.9" r="10.5"/>
<circle class="st8" cx="416" cy="277.2" r="14"/>
<circle class="st8" cx="392.8" cy="312.5" r="13.2"/>
<circle class="st10" cx="465.8" cy="275.1" r="8.5"/>
<circle class="st9" cx="348.5" cy="308" r="7.7"/>
<circle class="st9" cx="389.1" cy="345.7" r="5.2"/>
<circle class="st8" cx="376.1" cy="280.3" r="9.8"/>
<circle class="st8" cx="387.6" cy="251.3" r="9.4"/>
<circle class="st9" cx="382.8" cy="340.3" r="3.1"/>
<circle class="st8" cx="404.7" cy="263.1" r="4"/>
<circle class="st8" cx="419.1" cy="326.8" r="9.3"/>
<circle class="st8" cx="373.3" cy="262.2" r="8.5"/>
<circle class="st10" cx="437.1" cy="279" r="7.2"/>
<circle class="st8" cx="391.5" cy="288.9" r="7.7"/>
<circle class="st10" cx="194.8" cy="159.5" r="4.6"/>
<circle class="st7" cx="321.6" cy="397.5" r="4.5"/>
<circle class="st7" cx="295.2" cy="418.4" r="3.3"/>
<circle class="st6" cx="340" cy="359.2" r="3.7"/>
<circle class="st4" cx="310.1" cy="455.5" r="4"/>
<circle class="st7" cx="303.8" cy="394.2" r="3.3"/>
<circle class="st4" cx="287.3" cy="461.8" r="2.5"/>
<circle class="st6" cx="315.1" cy="378" r="5.6"/>
<circle class="st4" cx="300.2" cy="461.6" r="2.4"/>
<circle class="st6" cx="309.4" cy="421.5" r="3.7"/>
<circle class="st10" cx="298.9" cy="407.4" r="6.1"/>
<circle class="st6" cx="319.5" cy="425.5" r="2.9"/>
<circle class="st7" cx="329.6" cy="389.3" r="4.7"/>
<circle class="st6" cx="354.3" cy="368.5" r="3.9"/>
<circle class="st6" cx="296.8" cy="385.8" r="3.3"/>
<circle class="st4" cx="306.1" cy="440.4" r="3.1"/>
<circle class="st6" cx="326.9" cy="375.1" r="5.2"/>
<circle class="st4" cx="318.7" cy="353.1" r="3.2"/>
<circle class="st7" cx="326.1" cy="406.3" r="4.3"/>
<circle class="st6" cx="307.3" cy="382.4" r="3.1"/>
<circle class="st4" cx="293.5" cy="444.4" r="2.2"/>
<circle class="st6" cx="342.3" cy="385.6" r="4.8"/>
<circle class="st7" cx="311.4" cy="406" r="6.4"/>
<circle class="st7" cx="287.2" cy="409.8" r="5.8"/>
<circle class="st4" cx="299.6" cy="474.6" r="2.6"/>
<circle class="st6" cx="332.3" cy="354.4" r="3.6"/>
<circle class="st4" cx="340.2" cy="366.5" r="3.5"/>
<circle class="st6" cx="294.8" cy="431.2" r="3.3"/>
<circle class="st5" cx="136.7" cy="417.7" r="2.6"/>
<circle class="st5" cx="115.1" cy="456.4" r="2.9"/>
<circle class="st5" cx="72.4" cy="417.7" r="2"/>
<circle class="st5" cx="150.9" cy="512" r="3.3"/>
<circle class="st5" cx="142" cy="544.5" r="3.6"/>
<ellipse transform="matrix(0.9951 -9.854411e-02 9.854411e-02 0.9951 -35.3858 11.1519)" class="st4" cx="95.2" cy="363.8" rx="16.2" ry="16.2"/>
<circle class="st5" cx="79.5" cy="401.5" r="5.7"/>
<circle class="st4" cx="124.3" cy="373.7" r="6.4"/>
<circle class="st4" cx="126.2" cy="350.3" r="4.2"/>
<circle class="st5" cx="96.7" cy="333.7" r="7.7"/>
<circle class="st4" cx="135.4" cy="399.8" r="5.7"/>
<circle class="st5" cx="91.6" cy="396.4" r="6.2"/>
<circle class="st5" cx="76.3" cy="365.1" r="2.7"/>
<circle class="st4" cx="135.9" cy="372.9" r="3.5"/>
<circle class="st4" cx="142.6" cy="367.3" r="5.2"/>
<circle class="st3" cx="40.7" cy="385" r="3.2"/>
<circle class="st4" cx="115.4" cy="354.6" r="5.9"/>
<ellipse transform="matrix(6.652071e-02 -0.9978 0.9978 6.652071e-02 -351.3075 452.4976)" class="st5" cx="66.2" cy="414" rx="3.2" ry="3.2"/>
<circle class="st5" cx="57" cy="379.9" r="5.2"/>
<ellipse transform="matrix(6.652060e-02 -0.9978 0.9978 6.652060e-02 -343.8077 442.1139)" class="st5" cx="64.4" cy="404.8" rx="6.2" ry="6.2"/>
<circle class="st3" cx="51.7" cy="349.2" r="6.2"/>
<circle class="st4" cx="100.6" cy="385.7" r="6.4"/>
<circle class="st4" cx="107.8" cy="345.6" r="5.8"/>
<circle class="st4" cx="137.5" cy="356.7" r="4.5"/>
<circle class="st5" cx="69.7" cy="367" r="3.9"/>
<circle class="st4" cx="121.3" cy="383.9" r="2.7"/>
<circle class="st4" cx="106" cy="415.2" r="4.4"/>
<circle class="st4" cx="131.2" cy="364.2" r="5.3"/>
<circle class="st5" cx="76.3" cy="372.5" r="4.6"/>
<circle class="st3" cx="47.3" cy="395.9" r="3.3"/>
<circle class="st5" cx="69.1" cy="387.5" r="8.4"/>
<circle class="st4" cx="118.8" cy="344.6" r="4.6"/>
<circle class="st4" cx="115.5" cy="399.5" r="14"/>
<circle class="st5" cx="116.3" cy="365.5" r="5"/>
<circle class="st4" cx="131.2" cy="408.6" r="4.1"/>
<circle class="st5" cx="132.7" cy="414.9" r="2.4"/>
<circle class="st4" cx="134.5" cy="385.2" r="8.9"/>
<circle class="st5" cx="143.3" cy="421.6" r="5.1"/>
<circle class="st9" cx="215.3" cy="166.5" r="5"/>
<circle class="st10" cx="159.6" cy="222.8" r="5.3"/>
<circle class="st8" cx="232.5" cy="233.8" r="6.5"/>
<circle class="st10" cx="152.2" cy="208.5" r="4.2"/>
<circle class="st8" cx="192.7" cy="250.8" r="5.4"/>
<circle class="st9" cx="217.5" cy="245.9" r="5.1"/>
<circle class="st8" cx="225.7" cy="241.8" r="4"/>
<circle class="st8" cx="171.1" cy="239.5" r="4.4"/>
<circle class="st8" cx="237.3" cy="210" r="4.3"/>
<circle class="st8" cx="163.9" cy="232.7" r="5.6"/>
<circle class="st8" cx="207.8" cy="161.5" r="4.1"/>
<circle class="st7" cx="191.8" cy="282.1" r="4.2"/>
<circle class="st8" cx="217.9" cy="261.5" r="3.9"/>
<circle class="st8" cx="246.5" cy="257.5" r="3.4"/>
<circle class="st10" cx="205.4" cy="168.1" r="3"/>
<circle class="st8" cx="223.4" cy="181.3" r="3.9"/>
<circle class="st9" cx="216.5" cy="254.4" r="3.5"/>
<circle class="st8" cx="159.5" cy="204.7" r="4"/>
<circle class="st7" cx="152.4" cy="199.7" r="4.6"/>
<circle class="st8" cx="161.1" cy="195.9" r="4.9"/>
<circle class="st9" cx="225.1" cy="173.9" r="3.8"/>
<circle class="st6" cx="194.4" cy="152.2" r="2.7"/>
<circle class="st4" cx="190.2" cy="125" r="3"/>
<circle class="st6" cx="189.8" cy="148.9" r="2.9"/>
<circle class="st6" cx="195.5" cy="138.4" r="5.2"/>
<circle class="st3" cx="235.2" cy="152.6" r="2.2"/>
<circle class="st5" cx="213.3" cy="144.2" r="3"/>
<circle class="st3" cx="218.7" cy="131.6" r="2.1"/>
<circle class="st4" cx="198.8" cy="147" r="4.1"/>
<circle class="st5" cx="217.8" cy="158.3" r="3.7"/>
<circle class="st6" cx="201.1" cy="163.9" r="3"/>
<circle class="st6" cx="205.8" cy="154.5" r="3.2"/>
<circle class="st7" cx="199.7" cy="153.9" r="2.9"/>
<circle class="st4" cx="158.2" cy="99.8" r="3.5"/>
<circle class="st4" cx="154.3" cy="86.3" r="3.4"/>
<circle class="st5" cx="159.3" cy="76.6" r="2.3"/>
<circle class="st4" cx="138.7" cy="76.1" r="4.4"/>
<circle class="st4" cx="176.3" cy="113.5" r="2.5"/>
<circle class="st4" cx="161.1" cy="81.4" r="2.6"/>
<circle class="st7" cx="155" cy="121.3" r="6.5"/>
<circle class="st2" cx="192.9" cy="94" r="2.3"/>
<circle class="st7" cx="173.3" cy="127.5" r="3.6"/>
<circle class="st5" cx="181.8" cy="102.3" r="2.4"/>
<circle class="st4" cx="161.5" cy="105.1" r="2.7"/>
<circle class="st4" cx="146.6" cy="75.9" r="3.5"/>
<circle class="st2" cx="225.4" cy="93.2" r="2.5"/>
<circle class="st4" cx="144.7" cy="100.5" r="2.7"/>
<circle class="st4" cx="166.9" cy="90.7" r="3"/>
<circle class="st4" cx="147.6" cy="109.3" r="3.2"/>
<circle class="st4" cx="165.1" cy="108.3" r="2.2"/>
<circle class="st4" cx="157.5" cy="110.7" r="2.5"/>
<circle class="st7" cx="162.8" cy="127.3" r="3.3"/>
<circle class="st4" cx="163.6" cy="86.1" r="2.7"/>
<circle class="st4" cx="159.7" cy="92" r="4.4"/>
<circle class="st6" cx="167.2" cy="118.9" r="2.8"/>
<circle class="st4" cx="142.2" cy="89.1" r="9"/>
<circle class="st3" cx="160.7" cy="41.9" r="4"/>
<circle class="st3" cx="251.1" cy="63.1" r="2"/>
<circle class="st7" cx="388.2" cy="373.1" r="7.6"/>
<circle class="st7" cx="350.6" cy="319.6" r="4"/>
<circle class="st7" cx="436.8" cy="342.2" r="5"/>
<circle class="st7" cx="427" cy="347" r="5.9"/>
<circle class="st7" cx="428.8" cy="336.8" r="4.6"/>
<circle class="st7" cx="346" cy="353" r="4.9"/>
<circle class="st7" cx="398.7" cy="353.2" r="7"/>
<circle class="st10" cx="427.9" cy="316" r="4.7"/>
<circle class="st6" cx="365.4" cy="366.7" r="3.7"/>
<circle class="st7" cx="387.7" cy="359.7" r="5.8"/>
<circle class="st7" cx="432.6" cy="354.2" r="3.6"/>
<circle class="st6" cx="380.3" cy="365.3" r="3.5"/>
<circle class="st7" cx="384.9" cy="326.7" r="3"/>
<circle class="st6" cx="361.7" cy="357.7" r="3.7"/>
<circle class="st6" cx="359.4" cy="363.8" r="2.9"/>
<circle class="st7" cx="444.5" cy="338.4" r="3.6"/>
<circle class="st7" cx="337.7" cy="346.9" r="5.4"/>
<circle class="st6" cx="391.2" cy="385.4" r="5.1"/>
<circle class="st7" cx="410.5" cy="418.8" r="6.3"/>
<circle class="st7" cx="372.9" cy="365.1" r="3.9"/>
<circle class="st7" cx="402.8" cy="330.4" r="7.4"/>
<circle class="st7" cx="439.6" cy="311.5" r="4.4"/>
<circle class="st7" cx="356.8" cy="325.2" r="4.4"/>
<circle class="st6" cx="369.6" cy="374.1" r="3.5"/>
<circle class="st5" cx="239.3" cy="583.8" r="4.1"/>
<ellipse transform="matrix(0.1602 -0.9871 0.9871 0.1602 -399.5771 704.5341)" class="st5" cx="214.3" cy="587.1" rx="21.2" ry="21.2"/>
<circle class="st5" cx="207.7" cy="626.2" r="4.1"/>
<circle class="st5" cx="167.4" cy="596.7" r="5.9"/>
<circle class="st5" cx="185.2" cy="594.1" r="5.6"/>
<circle class="st3" cx="188.1" cy="617.1" r="3.1"/>
<circle class="st5" cx="232.6" cy="606.1" r="5.1"/>
<circle class="st5" cx="196.3" cy="607.1" r="5.7"/>
<circle class="st5" cx="182.7" cy="607.6" r="7.9"/>
<circle class="st5" cx="195.4" cy="616.9" r="4.2"/>
<circle class="st5" cx="176.2" cy="528" r="6.6"/>
<circle class="st5" cx="158.3" cy="524.9" r="11.6"/>
<circle class="st5" cx="194.4" cy="546.4" r="7.5"/>
<circle class="st4" cx="207.7" cy="481.1" r="5.4"/>
<circle class="st4" cx="182.3" cy="506.2" r="5.5"/>
<circle class="st5" cx="164.7" cy="540.7" r="5.4"/>
<circle class="st5" cx="175.1" cy="539.8" r="4.5"/>
<circle class="st4" cx="201.2" cy="497.1" r="7.5"/>
<circle class="st5" cx="170.3" cy="555" r="4.9"/>
<circle class="st5" cx="185.8" cy="522.3" r="4.6"/>
<circle class="st4" cx="202.9" cy="524.5" r="5.9"/>
<circle class="st5" cx="152.9" cy="553.6" r="4.8"/>
<circle class="st4" cx="202.5" cy="511.7" r="4"/>
<circle class="st5" cx="236" cy="573.4" r="4.5"/>
<circle class="st5" cx="176.1" cy="583.7" r="4.3"/>
<circle class="st5" cx="194.4" cy="567.2" r="4.9"/>
<circle class="st5" cx="181.3" cy="563.6" r="6.6"/>
<circle class="st5" cx="164.8" cy="570.1" r="5.2"/>
<circle class="st5" cx="206.9" cy="614.8" r="7.4"/>
<circle class="st5" cx="158.5" cy="583.4" r="4.8"/>
<circle class="st3" cx="209.6" cy="665.5" r="6.1"/>
<circle class="st3" cx="194.7" cy="674.8" r="8.6"/>
<circle class="st3" cx="208.8" cy="655.3" r="4.1"/>
<circle class="st5" cx="169.6" cy="614.4" r="6.9"/>
<circle class="st5" cx="162.3" cy="605.7" r="4.5"/>
<circle class="st2" cx="186.5" cy="649.1" r="7.1"/>
<circle class="st3" cx="209" cy="677.6" r="5.9"/>
<circle class="st5" cx="169.5" cy="629.4" r="8.1"/>
<circle class="st5" cx="187.9" cy="630.4" r="10.3"/>
<circle class="st5" cx="200.3" cy="643.6" r="7.8"/>
<circle class="st3" cx="175.7" cy="653.1" r="4.5"/>
<circle class="st2" cx="207.2" cy="701.8" r="8.5"/>
<circle class="st3" cx="182.3" cy="663.6" r="8"/>
<circle class="st5" cx="180.3" cy="618.8" r="3.6"/>
<circle class="st2" cx="118.9" cy="698.3" r="2.8"/>
<circle class="st6" cx="184.3" cy="344.4" r="3.3"/>
<circle class="st4" cx="154.3" cy="381.1" r="3.6"/>
<circle class="st4" cx="311" cy="360.6" r="2.9"/>
<circle class="st6" cx="223.7" cy="325.5" r="3.7"/>
<circle class="st6" cx="278.2" cy="390.4" r="5.4"/>
<circle class="st4" cx="149.5" cy="397.2" r="4.3"/>
<circle class="st4" cx="223.5" cy="390.5" r="5.1"/>
<circle class="st8" cx="239.2" cy="305.5" r="5.4"/>
<circle class="st6" cx="213.2" cy="352.4" r="6.7"/>
<circle class="st4" cx="191.2" cy="402.6" r="3.2"/>
<circle class="st7" cx="258.9" cy="326.1" r="5.5"/>
<circle class="st4" cx="245" cy="384.6" r="6.2"/>
<circle class="st6" cx="259.8" cy="344.7" r="4.6"/>
<circle class="st10" cx="231.3" cy="310.2" r="3.8"/>
<circle class="st4" cx="193" cy="370" r="5.1"/>
<circle class="st4" cx="163.9" cy="374.7" r="6.3"/>
<circle class="st4" cx="292.7" cy="367.8" r="3.3"/>
<circle class="st4" cx="195.4" cy="389.2" r="4.9"/>
<circle class="st6" cx="208.4" cy="327.4" r="4.4"/>
<circle class="st9" cx="237.7" cy="284.6" r="5.9"/>
<circle class="st4" cx="207.3" cy="382.1" r="3.2"/>
<circle class="st4" cx="226.2" cy="373.7" r="4.5"/>
<circle class="st4" cx="178.5" cy="370.6" r="8.6"/>
<circle class="st6" cx="268.9" cy="359.9" r="6.5"/>
<circle class="st4" cx="154.1" cy="367.1" r="3.9"/>
<circle class="st6" cx="277.6" cy="347.5" r="5"/>
<circle class="st4" cx="279.7" cy="372" r="4.2"/>
<circle class="st6" cx="169.7" cy="335.1" r="4.7"/>
<circle class="st9" cx="219.7" cy="296.7" r="5.2"/>
<circle class="st6" cx="250.2" cy="365.4" r="4.2"/>
<circle class="st4" cx="164.8" cy="325.8" r="3.7"/>
<circle class="st6" cx="272.6" cy="332.9" r="4"/>
<circle class="st6" cx="229" cy="358.8" r="4.7"/>
<circle class="st6" cx="199.3" cy="344.3" r="5.1"/>
<circle class="st4" cx="162.5" cy="351.8" r="4.9"/>
<circle class="st7" cx="308" cy="341.2" r="6.8"/>
<circle class="st6" cx="243" cy="343.7" r="6.8"/>
<circle class="st7" cx="287.2" cy="333.6" r="6.4"/>
<circle class="st6" cx="207.6" cy="364.4" r="4.5"/>
<circle class="st4" cx="263.3" cy="380.3" r="4.8"/>
<circle class="st6" cx="301.3" cy="353.1" r="4.7"/>
<circle class="st6" cx="194.6" cy="354.1" r="3.7"/>
<circle class="st7" cx="204.3" cy="300.5" r="4.1"/>
<circle class="st7" cx="218.9" cy="310.5" r="5.5"/>
<circle class="st6" cx="297" cy="339.9" r="4.3"/>
<circle class="st6" cx="320" cy="343.6" r="4.4"/>
<circle class="st7" cx="245.7" cy="318.6" r="4.9"/>
<circle class="st6" cx="175.2" cy="356.4" r="6"/>
<circle class="st6" cx="290" cy="349.4" r="3.4"/>
<circle class="st6" cx="222.4" cy="342.8" r="4.9"/>
<circle class="st4" cx="179" cy="388.5" r="6.2"/>
<circle class="st4" cx="181" cy="437.7" r="10.9"/>
<circle class="st6" cx="192.7" cy="449.6" r="5.8"/>
<circle class="st4" cx="217.3" cy="406.6" r="7.7"/>
<circle class="st4" cx="174.3" cy="457" r="9.5"/>
<circle class="st6" cx="266.6" cy="406.7" r="4.9"/>
<circle class="st6" cx="171.8" cy="422" r="7.3"/>
<circle class="st4" cx="159.6" cy="414.4" r="7.1"/>
<circle class="st6" cx="257" cy="431.9" r="6.4"/>
<circle class="st4" cx="159.9" cy="395.2" r="6.3"/>
<circle class="st6" cx="275.3" cy="439.4" r="4.2"/>
<circle class="st6" cx="275.4" cy="409" r="4.2"/>
<circle class="st4" cx="208.2" cy="443.1" r="4.3"/>
<circle class="st4" cx="174" cy="404.4" r="10.4"/>
<circle class="st4" cx="197.8" cy="439.1" r="5.9"/>
<circle class="st4" cx="139.1" cy="516.5" r="9.4"/>
<circle class="st4" cx="204.3" cy="468.9" r="7.2"/>
<circle class="st4" cx="117.7" cy="479.2" r="8.8"/>
<ellipse transform="matrix(0.9951 -9.854408e-02 9.854408e-02 0.9951 -45.1954 11.5377)" class="st4" cx="94.2" cy="463.3" rx="19.3" ry="19.3"/>
<ellipse transform="matrix(0.3162 -0.9487 0.9487 0.3162 -214.4906 515.4136)" class="st6" cx="250.3" cy="406.5" rx="11.4" ry="11.4"/>
<circle class="st4" cx="219.8" cy="454.8" r="8.8"/>
<circle class="st4" cx="148.1" cy="388" r="5"/>
<circle class="st4" cx="155.7" cy="436.4" r="14.3"/>
<circle class="st4" cx="185.2" cy="475.6" r="5.4"/>
<circle class="st4" cx="141.5" cy="410.2" r="6.4"/>
<circle class="st4" cx="119.8" cy="464.2" r="6.4"/>
<circle class="st4" cx="202.2" cy="456.1" r="5.8"/>
<circle class="st6" cx="146.8" cy="470.9" r="21.4"/>
<circle class="st6" cx="104.3" cy="487.9" r="7.3"/>
<circle class="st4" cx="127.5" cy="497.1" r="5.3"/>
<circle class="st4" cx="159.7" cy="502.2" r="7.9"/>
<circle class="st4" cx="142.6" cy="499.7" r="7.7"/>
<ellipse transform="matrix(0.9806 -0.1961 0.1961 0.9806 -100.0893 35.1804)" class="st5" cx="127.6" cy="523" rx="3.7" ry="3.7"/>
<circle class="st4" cx="174.3" cy="487.3" r="10.6"/>
<circle class="st4" cx="121.3" cy="434.4" r="20.2"/>
<circle class="st6" cx="239.8" cy="418.7" r="4.7"/>
<circle class="st4" cx="209.1" cy="429.1" r="4.4"/>
<circle class="st6" cx="230" cy="432.5" r="7.6"/>
<circle class="st5" cx="570.6" cy="328.4" r="2.5"/>
<circle class="st5" cx="577.3" cy="334.5" r="2.2"/>
<circle class="st5" cx="563" cy="332.8" r="2.5"/>
<circle class="st5" cx="569.5" cy="323.2" r="2.9"/>
<circle class="st5" cx="573.9" cy="319" r="3.2"/>
<circle class="st3" cx="576.4" cy="311.6" r="2.3"/>
<circle class="st5" cx="565.1" cy="317.5" r="2.3"/>
<circle class="st5" cx="575.7" cy="326.7" r="2.9"/>
<circle class="st3" cx="585" cy="315.7" r="2.4"/>
<circle class="st4" cx="501.9" cy="300.2" r="2.3"/>
<circle class="st5" cx="527.6" cy="307" r="3.4"/>
<circle class="st5" cx="540.2" cy="307.4" r="2.8"/>
<circle class="st4" cx="499.3" cy="294.6" r="2.1"/>
<circle class="st5" cx="529.4" cy="296.1" r="2.4"/>
<circle class="st6" cx="501.3" cy="309" r="2.3"/>
<circle class="st6" cx="486.5" cy="305" r="2.2"/>
<circle class="st4" cx="515.7" cy="308.6" r="2.2"/>
<circle class="st6" cx="494.7" cy="288" r="3.1"/>
<circle class="st4" cx="515.9" cy="301.7" r="2.5"/>
<circle class="st5" cx="551.2" cy="344.4" r="2.8"/>
<circle class="st3" cx="558.9" cy="351.1" r="2.3"/>
<circle class="st5" cx="547.9" cy="335.5" r="2.1"/>
<circle class="st5" cx="547.4" cy="378.7" r="2.2"/>
<circle class="st5" cx="547.7" cy="364.7" r="2.3"/>
<circle class="st5" cx="542.1" cy="346" r="2.2"/>
<circle class="st3" cx="554" cy="378.7" r="2.1"/>
<circle class="st5" cx="552.8" cy="357.5" r="2.1"/>
<circle class="st5" cx="570.8" cy="297.6" r="2.9"/>
<circle class="st3" cx="577.9" cy="297.7" r="2.4"/>
<circle class="st5" cx="567.3" cy="304.5" r="2.1"/>
<circle class="st5" cx="579.7" cy="287.4" r="2.3"/>
<circle class="st3" cx="593.6" cy="295.6" r="2.1"/>
<circle class="st5" cx="592.9" cy="278.7" r="2.1"/>
<circle class="st5" cx="597.6" cy="275.4" r="2.4"/>
<circle class="st3" cx="594.9" cy="287.9" r="2.4"/>
<circle class="st5" cx="586.9" cy="280.5" r="2.4"/>
<circle class="st3" cx="587.3" cy="300.6" r="2.3"/>
<circle class="st3" cx="586.2" cy="292" r="2.3"/>
<ellipse class="st8" cx="198.1" cy="210.7" rx="35" ry="35"/>
<circle class="st4" cx="374" cy="409.4" r="4.9"/>
<circle class="st6" cx="339.2" cy="420.9" r="5.5"/>
<circle class="st6" cx="426.7" cy="427.1" r="6.9"/>
<circle class="st6" cx="343.2" cy="406.1" r="4.4"/>
<circle class="st4" cx="361.1" cy="419.4" r="3.2"/>
<circle class="st4" cx="415.3" cy="428.5" r="4.5"/>
<circle class="st4" cx="386" cy="426.1" r="8.3"/>
<circle class="st6" cx="374.7" cy="400.3" r="2.7"/>
<circle class="st4" cx="398.7" cy="424.2" r="4.1"/>
<circle class="st5" cx="360.7" cy="453.8" r="3.3"/>
<circle class="st4" cx="372.2" cy="443.3" r="9"/>
<circle class="st4" cx="410.8" cy="436.2" r="4.4"/>
<circle class="st4" cx="394.8" cy="415.9" r="5.2"/>
<circle class="st6" cx="356.4" cy="392.3" r="3.3"/>
<circle class="st4" cx="337.6" cy="437.6" r="5"/>
<circle class="st4" cx="358.2" cy="431.4" r="3.2"/>
<circle class="st4" cx="406.3" cy="428.7" r="4.4"/>
<circle class="st6" cx="390.2" cy="396.9" r="5.6"/>
<circle class="st4" cx="397.7" cy="436.4" r="7.2"/>
<circle class="st5" cx="329.2" cy="462" r="4.8"/>
<circle class="st5" cx="312.4" cy="474.7" r="3.2"/>
<circle class="st6" cx="439.2" cy="395.3" r="7.2"/>
<circle class="st4" cx="320.9" cy="444.1" r="4.8"/>
<circle class="st4" cx="379.5" cy="416.1" r="3.7"/>
<circle class="st6" cx="326.2" cy="423.7" r="3.4"/>
<circle class="st4" cx="388" cy="443.3" r="4.7"/>
<circle class="st5" cx="346.8" cy="449.3" r="3.7"/>
<circle class="st6" cx="363.4" cy="400.7" r="4.5"/>
<circle class="st6" cx="353.4" cy="412.5" r="3.1"/>
<circle class="st6" cx="368.6" cy="386.1" r="6.2"/>
<circle class="st5" cx="241.3" cy="627.2" r="2.6"/>
<circle class="st5" cx="160.6" cy="616" r="2.3"/>
<ellipse transform="matrix(0.1602 -0.9871 0.9871 0.1602 -445.0157 760.9011)" class="st5" cx="224.7" cy="642" rx="3.6" ry="3.6"/>
<circle class="st4" cx="305.3" cy="508.9" r="2"/>
<circle class="st10" cx="157.4" cy="149.5" r="6.8"/>
<circle class="st10" cx="186.5" cy="174.1" r="3.4"/>
<circle class="st10" cx="159.7" cy="169.7" r="4"/>
<circle class="st10" cx="152.2" cy="176.7" r="3.1"/>
<circle class="st9" cx="188.4" cy="163.8" r="3"/>
<circle class="st7" cx="145.9" cy="191.1" r="4.2"/>
<circle class="st10" cx="151.4" cy="169.3" r="4.3"/>
<circle class="st10" cx="168.4" cy="143.9" r="5.6"/>
<circle class="st10" cx="179.6" cy="151.9" r="4.9"/>
<circle class="st10" cx="173.9" cy="162.3" r="6.5"/>
<circle class="st10" cx="168.1" cy="154.1" r="3.6"/>
<circle class="st10" cx="162.8" cy="182.2" r="8.9"/>
<circle class="st10" cx="202.7" cy="173.3" r="2.8"/>
<circle class="st10" cx="167.4" cy="170.4" r="3.7"/>
<circle class="st10" cx="149.3" cy="183.8" r="3.8"/>
<circle class="st7" cx="174.4" cy="134.6" r="3"/>
<ellipse class="st9" cx="230.9" cy="187" rx="5.6" ry="5.6"/>
<circle class="st10" cx="186.9" cy="156.9" r="3.6"/>
<circle class="st9" cx="209" cy="173.7" r="3.6"/>
<circle class="st9" cx="176.6" cy="175.2" r="6.6"/>
<circle class="st10" cx="182.7" cy="166.9" r="3.4"/>
<circle class="st10" cx="159" cy="160.6" r="4.4"/>
<circle class="st4" cx="148.4" cy="290.4" r="7.2"/>
<circle class="st10" cx="244" cy="244.8" r="9.4"/>
<circle class="st4" cx="146.9" cy="352.8" r="5.3"/>
<circle class="st6" cx="199.2" cy="316.2" r="4.1"/>
<circle class="st5" cx="84.6" cy="298.6" r="7.2"/>
<circle class="st8" cx="217.6" cy="284.5" r="7.1"/>
<circle class="st4" cx="155.3" cy="304.7" r="6.8"/>
<circle class="st5" cx="119.8" cy="238.5" r="6.7"/>
<circle class="st6" cx="174.9" cy="306.8" r="4.3"/>
<circle class="st4" cx="156.7" cy="320" r="5.5"/>
<circle class="st4" cx="151.4" cy="236.4" r="6.1"/>
<circle class="st10" cx="197" cy="291.1" r="4.5"/>
<circle class="st8" cx="226.1" cy="303.8" r="4.4"/>
<circle class="st4" cx="113.1" cy="374.7" r="4.8"/>
<circle class="st6" cx="130.5" cy="208" r="6.7"/>
<circle class="st6" cx="151" cy="217.4" r="4.8"/>
<circle class="st7" cx="170.9" cy="282.4" r="16.6"/>
<circle class="st5" cx="71.7" cy="266" r="3.4"/>
<circle class="st5" cx="100.3" cy="314.1" r="5.7"/>
<circle class="st6" cx="187" cy="332.4" r="4.8"/>
<circle class="st6" cx="181.4" cy="248.5" r="6.3"/>
<circle class="st5" cx="112.7" cy="273.9" r="9.4"/>
<circle class="st10" cx="206.6" cy="292.1" r="4.6"/>
<circle class="st6" cx="185.8" cy="313.3" r="6.3"/>
<circle class="st4" cx="142.2" cy="266.7" r="8.7"/>
<circle class="st5" cx="129.2" cy="298.6" r="6.1"/>
<circle class="st4" cx="153.7" cy="339.7" r="3.8"/>
<circle class="st4" cx="136.3" cy="311.1" r="4.6"/>
<circle class="st7" cx="188.5" cy="294.2" r="4.5"/>
<circle class="st6" cx="148.2" cy="251.8" r="7.4"/>
<circle class="st5" cx="113.4" cy="321.7" r="4.1"/>
<circle class="st6" cx="181.9" cy="300.9" r="4.9"/>
<circle class="st4" cx="132.8" cy="330.4" r="7.5"/>
<circle class="st5" cx="467.1" cy="262.3" r="2.6"/>
<circle class="st3" cx="456" cy="249.6" r="2.1"/>
<circle class="st4" cx="455" cy="255" r="2.2"/>
<circle class="st5" cx="447.1" cy="250.1" r="2.2"/>
<circle class="st5" cx="231.2" cy="641" r="3.1"/>
<circle class="st5" cx="274" cy="581.3" r="11"/>
<circle class="st5" cx="197.6" cy="658.8" r="7.6"/>
<circle class="st5" cx="269.9" cy="618.9" r="7.9"/>
<circle class="st5" cx="217" cy="623.6" r="4.6"/>
<circle class="st5" cx="219.3" cy="657.7" r="6.3"/>
<circle class="st5" cx="233.5" cy="617.6" r="6.4"/>
<circle class="st5" cx="264.6" cy="601" r="10.8"/>
<circle class="st2" cx="203.3" cy="688" r="5.9"/>
<circle class="st5" cx="242.7" cy="650.9" r="5.3"/>
<circle class="st5" cx="221.4" cy="613.6" r="6.2"/>
<circle class="st5" cx="231" cy="665.5" r="7.8"/>
<circle class="st5" cx="267.6" cy="647.4" r="5"/>
<circle class="st5" cx="213.2" cy="636.1" r="7.2"/>
<circle class="st5" cx="241.9" cy="621.7" r="2.9"/>
<circle class="st5" cx="252" cy="656.1" r="5.3"/>
<circle class="st3" cx="241.1" cy="673" r="4.6"/>
<circle class="st5" cx="241.7" cy="637.8" r="8"/>
<circle class="st5" cx="243.3" cy="662.7" r="4.8"/>
<ellipse transform="matrix(0.3162 -0.9487 0.9487 0.3162 -422.2906 665.9094)" class="st5" cx="250.8" cy="625.9" rx="7" ry="7"/>
<circle class="st5" cx="179.5" cy="641.3" r="3.4"/>
<circle class="st3" cx="214" cy="648.1" r="4.7"/>
<circle class="st5" cx="284.5" cy="598.6" r="9.2"/>
<circle class="st5" cx="257.9" cy="646.5" r="4.6"/>
<circle class="st3" cx="231.2" cy="685.2" r="6.4"/>
<circle class="st5" cx="230.6" cy="650.9" r="6.9"/>
<circle class="st3" cx="217.3" cy="688.8" r="8"/>
<circle class="st5" cx="227.4" cy="630.7" r="8"/>
<circle class="st5" cx="250.9" cy="612.1" r="6.8"/>
<circle class="st5" cx="244.3" cy="596.8" r="9.9"/>
<circle class="st5" cx="264" cy="634.2" r="8.6"/>
<circle class="st5" cx="222.6" cy="676.1" r="5.7"/>
<circle class="st4" cx="248.2" cy="449.7" r="7.6"/>
<circle class="st4" cx="243.3" cy="499.7" r="10"/>
<circle class="st4" cx="251.5" cy="466.6" r="9.6"/>
<circle class="st4" cx="285.3" cy="489.6" r="7.7"/>
<circle class="st4" cx="226.7" cy="515.2" r="10.1"/>
<circle class="st4" cx="238.7" cy="480.4" r="8"/>
<circle class="st4" cx="249.5" cy="517.6" r="9"/>
<circle class="st4" cx="228.9" cy="468.7" r="7.2"/>
<circle class="st4" cx="221.8" cy="492.4" r="12.6"/>
<circle class="st4" cx="262.5" cy="484.8" r="9"/>
<circle class="st6" cx="530.1" cy="344.5" r="2.6"/>
<circle class="st6" cx="525.8" cy="353.1" r="3.2"/>
<circle class="st6" cx="524.9" cy="341.6" r="3"/>
<circle class="st4" cx="536.8" cy="338.3" r="2.4"/>
<circle class="st7" cx="516.5" cy="350.9" r="2.7"/>
<circle class="st6" cx="520.9" cy="356.3" r="2.7"/>
<circle class="st6" cx="533.2" cy="334.7" r="2.6"/>
<circle class="st7" cx="518.2" cy="343.7" r="4"/>
<circle class="st8" cx="165.9" cy="255.5" r="10.7"/>
<circle class="st8" cx="240.2" cy="269.2" r="9.8"/>
<circle class="st8" cx="294.6" cy="309.3" r="11.3"/>
<circle class="st8" cx="328.8" cy="251.6" r="6.2"/>
<circle class="st8" cx="312.9" cy="311.6" r="7.2"/>
<circle class="st8" cx="244.7" cy="228.7" r="6.7"/>
<circle class="st8" cx="285.4" cy="234.2" r="4.9"/>
<circle class="st8" cx="323.8" cy="295.8" r="10.7"/>
<circle class="st8" cx="216.9" cy="175.9" r="4.6"/>
<circle class="st8" cx="282.2" cy="245" r="6.5"/>
<circle class="st8" cx="364.1" cy="293.2" r="7.8"/>
<circle class="st8" cx="324.3" cy="229.8" r="6.4"/>
<circle class="st9" cx="265.9" cy="317.1" r="5.9"/>
<circle class="st8" cx="283.8" cy="260" r="8.5"/>
<circle class="st8" cx="277.7" cy="220.3" r="11"/>
<circle class="st8" cx="307.7" cy="287.3" r="7.6"/>
<circle class="st8" cx="244" cy="179.5" r="9.3"/>
<circle class="st8" cx="269" cy="238.6" r="8.2"/>
<circle class="st8" cx="193.7" cy="267.2" r="10.8"/>
<circle class="st9" cx="350.9" cy="288.3" r="6.2"/>
<circle class="st9" cx="289.6" cy="323.5" r="3.8"/>
<circle class="st8" cx="342.9" cy="256.1" r="8.7"/>
<circle class="st8" cx="243.1" cy="294.9" r="5.8"/>
<circle class="st8" cx="228.4" cy="278.5" r="5.2"/>
<circle class="st8" cx="317.3" cy="259.6" r="7.9"/>
<circle class="st8" cx="282.3" cy="296.2" r="5.9"/>
<circle class="st8" cx="276.1" cy="307.8" r="7.3"/>
<circle class="st8" cx="268.1" cy="255.7" r="7.8"/>
<circle class="st8" cx="211.7" cy="271.1" r="7.6"/>
<ellipse transform="matrix(0.3162 -0.9487 0.9487 0.3162 -7.1922 371.6217)" class="st8" cx="254.2" cy="190.8" rx="5.9" ry="5.9"/>
<circle class="st8" cx="347.9" cy="335.4" r="9.1"/>
<circle class="st8" cx="316.6" cy="243" r="8.8"/>
<circle class="st8" cx="354.6" cy="238.1" r="10.1"/>
<circle class="st9" cx="255.5" cy="315.4" r="4.6"/>
<circle class="st8" cx="159" cy="213.4" r="4.2"/>
<circle class="st8" cx="298.5" cy="248.4" r="10.2"/>
<circle class="st8" cx="224.9" cy="268.5" r="5.5"/>
<circle class="st8" cx="268" cy="268.9" r="5.4"/>
<circle class="st8" cx="320.1" cy="328.3" r="11"/>
<circle class="st10" cx="231.3" cy="294.7" r="6"/>
<ellipse transform="matrix(0.3162 -0.9487 0.9487 0.3162 -57.7048 413.9398)" class="st8" cx="258.3" cy="247" rx="5.2" ry="5.2"/>
<circle class="st8" cx="248.8" cy="303.3" r="4.3"/>
<circle class="st8" cx="257.5" cy="283.5" r="12.6"/>
<circle class="st8" cx="255.9" cy="237.6" r="4.5"/>
<circle class="st8" cx="278.2" cy="322.6" r="7.7"/>
<circle class="st8" cx="336" cy="239" r="8.5"/>
<circle class="st8" cx="298.5" cy="227.4" r="10"/>
<circle class="st6" cx="238.5" cy="324.6" r="4.5"/>
<circle class="st8" cx="301" cy="269.7" r="11.3"/>
<circle class="st8" cx="338" cy="281.4" r="8.5"/>
<circle class="st10" cx="248.9" cy="311" r="3.4"/>
<circle class="st8" cx="271.5" cy="294.4" r="5.2"/>
<circle class="st8" cx="202.8" cy="281.8" r="6.4"/>
<circle class="st8" cx="370.7" cy="247.2" r="6.6"/>
<circle class="st8" cx="228.5" cy="254.6" r="8.9"/>
<circle class="st9" cx="321" cy="278.1" r="7.2"/>
<circle class="st8" cx="247.8" cy="215" r="7.4"/>
<circle class="st8" cx="205.7" cy="252.9" r="7.8"/>
<circle class="st8" cx="269.4" cy="195.4" r="6"/>
<circle class="st8" cx="300.8" cy="327.9" r="8.3"/>
<circle class="st8" cx="293.9" cy="291.3" r="6.8"/>
<circle class="st8" cx="279.8" cy="202.8" r="6.7"/>
<circle class="st8" cx="241" cy="197.4" r="8.8"/>
<circle class="st8" cx="255.1" cy="203.2" r="6.5"/>
<circle class="st8" cx="342.7" cy="269.3" r="4.5"/>
<circle class="st8" cx="308.3" cy="300.1" r="5.3"/>
<circle class="st8" cx="259.3" cy="225.4" r="8.1"/>
<circle class="st8" cx="236.3" cy="220.6" r="4.5"/>
<circle class="st8" cx="256.1" cy="264.1" r="6.8"/>
<circle class="st8" cx="359.1" cy="255.1" r="7.4"/>
<circle class="st8" cx="280.7" cy="279.3" r="11.1"/>
<circle class="st7" cx="325.8" cy="312.5" r="5.7"/>
<circle class="st8" cx="340.9" cy="296.1" r="6.4"/>
<circle class="st8" cx="261.2" cy="303.8" r="8.1"/>
<circle class="st8" cx="338.1" cy="320.6" r="8.6"/>
<circle class="st4" cx="264.9" cy="203.5" r="3.3"/>
<circle class="st5" cx="277" cy="191.7" r="2.4"/>
<circle class="st5" cx="260.8" cy="182.3" r="3.1"/>
<circle class="st4" cx="260.9" cy="196.1" r="2.6"/>
<ellipse class="st7" cx="226.2" cy="164.6" rx="5.4" ry="5.4"/>
<circle class="st6" cx="231.2" cy="177.8" r="3.5"/>
<circle class="st9" cx="194.7" cy="170" r="5.8"/>
<circle class="st7" cx="270.7" cy="207.2" r="3.5"/>
<circle class="st5" cx="273.6" cy="187.5" r="2.9"/>
<circle class="st3" cx="253.5" cy="173" r="2.2"/>
<circle class="st4" cx="234.3" cy="172.1" r="2.9"/>
<circle class="st9" cx="263.1" cy="212.3" r="5.6"/>
<circle class="st5" cx="239.6" cy="168.1" r="2.8"/>
<circle class="st6" cx="488.6" cy="281.5" r="4.8"/>
<circle class="st7" cx="412.2" cy="344.2" r="9.3"/>
<ellipse class="st7" cx="493.3" cy="361" rx="17.8" ry="17.8"/>
<circle class="st7" cx="448.3" cy="381.9" r="9"/>
<circle class="st7" cx="465.9" cy="290" r="5.1"/>
<circle class="st6" cx="459" cy="261.5" r="5.5"/>
<circle class="st6" cx="425.3" cy="408.4" r="11.9"/>
<ellipse class="st6" cx="473.9" cy="336.8" rx="13.2" ry="13.2"/>
<circle class="st6" cx="454" cy="286" r="7.5"/>
<circle class="st6" cx="477.4" cy="285.7" r="7.2"/>
<circle class="st6" cx="486.7" cy="395.2" r="10.8"/>
<circle class="st7" cx="438.8" cy="326" r="10.1"/>
<circle class="st7" cx="460.3" cy="310.7" r="16.3"/>
<circle class="st6" cx="469.6" cy="379.7" r="12.4"/>
<circle class="st6" cx="417.9" cy="375.1" r="22.1"/>
<circle class="st6" cx="452.2" cy="356.9" r="16.3"/>
<circle class="st6" cx="404" cy="404" r="9.9"/>
<circle class="st7" cx="430.2" cy="303.6" r="7.9"/>
<circle class="st6" cx="460.9" cy="409.5" r="18.7"/>
<circle class="st7" cx="414.5" cy="309.3" r="8.8"/>
<g transform="translate(405.97113348183444,695)">
	<circle class="st11" cx="-30.1" cy="-3.9" r="3.9"/>
	<circle class="st11" cx="-30.1" cy="-21.5" r="21.5"/>
	<circle class="st11" cx="-30.1" cy="-41" r="41"/>
	<g class="st0">
		<path class="st12" d="M-36.3-12.9v-0.7h1.9v-5.6h-0.1l-1.8,1.6l-0.5-0.5l1.8-1.7h1.3v6.2h1.8v0.7H-36.3z"/>
		<path class="st12" d="M-30.2-19.8h1.1l2,3.8l0,0l2-3.8h1.1v7h-0.8v-5.9l0,0l-0.6,1.2l-1.7,3l-1.7-3l-0.6-1.2l0,0v5.9h-0.8V-19.8z"
			/>
	</g>
	<g class="st0">
		<path class="st12" d="M-39.3-48v-0.7h1.9v-5.6h-0.1l-1.8,1.6l-0.5-0.5l1.8-1.7h1.3v6.2h1.8v0.7H-39.3z"/>
		<path class="st12" d="M-33.5-51.4c0-2.3,0.7-3.6,2.4-3.6s2.4,1.3,2.4,3.6s-0.7,3.6-2.4,3.6S-33.5-49.2-33.5-51.4z M-29.6-50.9V-52
			c0-1.3-0.4-2.3-1.5-2.3s-1.5,1-1.5,2.3v1.1c0,1.3,0.4,2.3,1.5,2.3C-30-48.6-29.6-49.5-29.6-50.9z"/>
		<path class="st12" d="M-27.2-54.9h1.1l2,3.8l0,0l2-3.8h1.1v7h-0.8v-5.9l0,0l-0.6,1.2l-1.7,3l-1.7-3l-0.6-1.2l0,0v5.9h-0.8V-54.9z"
			/>
	</g>
	<g class="st0">
		<path class="st12" d="M-34.8-86.9h-4.6v-0.9l2.3-2.1c0.6-0.6,1.1-1.3,1.1-2V-92c0-0.8-0.4-1.3-1.3-1.3c-0.9,0-1.3,0.5-1.4,1.2
			l-0.8-0.3c0.3-0.8,0.9-1.6,2.2-1.6c1.4,0,2.1,0.8,2.1,2c0,1.1-0.6,1.8-1.5,2.6l-1.9,1.7h3.7v0.8H-34.8z"/>
		<path class="st12" d="M-33.5-90.4c0-2.3,0.7-3.6,2.4-3.6s2.4,1.3,2.4,3.6c0,2.3-0.7,3.6-2.4,3.6S-33.5-88.1-33.5-90.4z
			 M-29.6-89.9V-91c0-1.3-0.4-2.3-1.5-2.3s-1.5,1-1.5,2.3v1.1c0,1.3,0.4,2.3,1.5,2.3C-30-87.5-29.6-88.5-29.6-89.9z"/>
		<path class="st12" d="M-27.2-93.9h1.1l2,3.8l0,0l2-3.8h1.1v7h-0.8v-5.9l0,0l-0.6,1.2l-1.7,3l-1.7-3l-0.6-1.2l0,0v5.9h-0.8V-93.9z"
			/>
	</g>
	<g class="st0">
		<path class="st12" d="M-70.5,18.5l0.9-0.7c0.7,0.9,1.5,1.4,2.6,1.4c1.4,0,2.2-0.7,2.2-1.8c0-0.9-0.5-1.4-1.8-1.7l-0.8-0.2
			c-1.8-0.4-2.8-1.2-2.8-2.7c0-1.7,1.3-2.7,3.2-2.7c1.5,0,2.5,0.6,3.2,1.6l-0.9,0.6c-0.5-0.7-1.3-1.2-2.4-1.2c-1.2,0-2,0.5-2,1.6
			c0,0.9,0.6,1.3,1.8,1.6l0.8,0.2c1.9,0.4,2.7,1.3,2.7,2.7c0,1.8-1.3,2.9-3.4,2.9C-68.6,20.2-69.7,19.5-70.5,18.5z"/>
		<path class="st12" d="M-61.8,10.5v-0.2c0-0.4,0.2-0.6,0.7-0.6s0.7,0.3,0.7,0.6v0.2c0,0.4-0.2,0.6-0.7,0.6S-61.8,10.8-61.8,10.5z
			 M-61.7,12.8h1.1V20h-1.1V12.8z"/>
		<path class="st12" d="M-58.9,20v-0.9l4.1-5.3h-4v-1h5.3v0.8l-4.2,5.4h4.3v1H-58.9z"/>
		<path class="st12" d="M-52.4,16.4c0-2.3,1.3-3.8,3.3-3.8c1.9,0,3.1,1.5,3.1,3.5v0.5h-5.2V17c0,1.2,0.8,2.2,2.1,2.2
			c0.9,0,1.6-0.4,2-1.2l0.8,0.6c-0.5,1-1.5,1.7-2.9,1.7C-51.1,20.2-52.4,18.7-52.4,16.4z M-51.2,15.7L-51.2,15.7l4,0.1v-0.2
			c0-1.3-0.8-2.1-1.9-2.1C-50.4,13.5-51.2,14.5-51.2,15.7z"/>
		<path class="st12" d="M-41.4,16.4c0-2.3,1.3-3.8,3.3-3.8s3.3,1.5,3.3,3.8s-1.3,3.8-3.3,3.8S-41.4,18.7-41.4,16.4z M-36.1,16.9v-1
			c0-1.5-0.9-2.3-2.1-2.3s-2.1,0.7-2.1,2.3v1c0,1.5,0.9,2.3,2.1,2.3S-36.1,18.4-36.1,16.9z"/>
		<path class="st12" d="M-32.7,13.8h-1.2v-1h1.2v-1.5c0-1,0.5-1.7,1.6-1.7h1.1v1h-1.6v2.2h1.6v1h-1.6V20h-1.1V13.8z"/>
		<path class="st12" d="M-25.8,16.4c0-2.3,1.2-3.8,3.2-3.8c1.4,0,2.3,0.7,2.7,1.7l-0.9,0.5c-0.3-0.7-0.9-1.2-1.8-1.2
			c-1.3,0-2,0.9-2,2.2V17c0,1.3,0.7,2.2,2,2.2c0.9,0,1.6-0.4,2-1.3l0.8,0.5c-0.5,1-1.4,1.7-2.8,1.7C-24.6,20.2-25.8,18.7-25.8,16.4z
			"/>
		<path class="st12" d="M-18.4,10.5v-0.2c0-0.4,0.2-0.6,0.7-0.6S-17,10-17,10.3v0.2c0,0.4-0.2,0.6-0.7,0.6
			C-18.1,11.1-18.4,10.8-18.4,10.5z M-18.2,12.8h1.1V20h-1.1V12.8z"/>
		<path class="st12" d="M-14.7,20v-7.2h1.1v1.3h0.1c0.3-0.7,0.9-1.3,2.1-1.3h0.4v1.1h-0.7c-1.2,0-1.9,0.5-1.9,1.2V20H-14.7z"/>
		<path class="st12" d="M-10.2,16.4c0-2.3,1.2-3.8,3.2-3.8c1.4,0,2.3,0.7,2.7,1.7l-0.9,0.5C-5.5,14-6.1,13.6-7,13.6
			c-1.3,0-2,0.9-2,2.2V17c0,1.3,0.7,2.2,2,2.2c0.9,0,1.6-0.4,2-1.3l0.8,0.5c-0.5,1-1.4,1.7-2.8,1.7C-9,20.2-10.2,18.7-10.2,16.4z"/>
		<path class="st12" d="M-1.4,20c-0.8,0-1.2-0.5-1.2-1.2V9.6h1.1V19h1.1v1H-1.4z"/>
		<path class="st12" d="M0.7,16.4c0-2.3,1.3-3.8,3.3-3.8c1.9,0,3.1,1.5,3.1,3.5v0.5H1.8V17c0,1.2,0.8,2.2,2.1,2.2
			c0.9,0,1.6-0.4,2-1.2l0.8,0.6c-0.5,1-1.5,1.7-2.9,1.7C1.9,20.2,0.7,18.7,0.7,16.4z M1.8,15.7L1.8,15.7l4,0.1v-0.2
			c0-1.3-0.8-2.1-1.9-2.1C2.7,13.5,1.8,14.5,1.8,15.7z"/>
		<path class="st12" d="M12.2,20v-7.2h1.1v1.3h0.1c0.3-0.7,0.9-1.3,2.1-1.3h0.4v1.1h-0.7c-1.2,0-1.9,0.5-1.9,1.2V20H12.2z"/>
		<path class="st12" d="M16.7,16.4c0-2.3,1.3-3.8,3.3-3.8c1.9,0,3.1,1.5,3.1,3.5v0.5h-5.2V17c0,1.2,0.8,2.2,2.1,2.2
			c0.9,0,1.6-0.4,2-1.2l0.8,0.6c-0.5,1-1.5,1.7-2.9,1.7C18,20.2,16.7,18.7,16.7,16.4z M17.9,15.7L17.9,15.7l4,0.1v-0.2
			c0-1.3-0.8-2.1-1.9-2.1C18.7,13.5,17.9,14.5,17.9,15.7z"/>
		<path class="st12" d="M24.9,12.8H26V14h0.1c0.4-0.9,1.1-1.3,2.1-1.3c1.8,0,2.9,1.5,2.9,3.8s-1.1,3.8-2.9,3.8c-1,0-1.7-0.4-2.1-1.3
			H26v4h-1.1V12.8z M30,17v-1.2c0-1.3-0.8-2.2-2-2.2c-1,0-1.9,0.6-1.9,1.4v2.7c0,0.9,0.8,1.5,1.9,1.5C29.2,19.2,30,18.3,30,17z"/>
		<path class="st12" d="M33,20v-7.2h1.1v1.3h0.1c0.3-0.7,0.9-1.3,2.1-1.3h0.4v1.1H36c-1.2,0-1.9,0.5-1.9,1.2V20H33z"/>
		<path class="st12" d="M37.6,16.4c0-2.3,1.3-3.8,3.3-3.8c1.9,0,3.1,1.5,3.1,3.5v0.5h-5.2V17c0,1.2,0.8,2.2,2.1,2.2
			c0.9,0,1.6-0.4,2-1.2l0.8,0.6c-0.5,1-1.5,1.7-2.9,1.7C38.9,20.2,37.6,18.7,37.6,16.4z M38.8,15.7L38.8,15.7l4,0.1v-0.2
			c0-1.3-0.8-2.1-1.9-2.1C39.6,13.5,38.8,14.5,38.8,15.7z"/>
		<path class="st12" d="M45.1,18.8l0.8-0.6c0.6,0.7,1.2,1.1,2.1,1.1c1,0,1.5-0.4,1.5-1.2c0-0.6-0.3-1-1.3-1.1l-0.6-0.1
			c-1.3-0.2-2.3-0.7-2.3-2.1s1.1-2.1,2.6-2.1c1.2,0,1.9,0.4,2.5,1.2l-0.7,0.7c-0.3-0.4-0.9-0.9-1.9-0.9c-0.9,0-1.4,0.4-1.4,1.1
			c0,0.7,0.5,1,1.4,1.1l0.6,0.1c1.6,0.2,2.2,0.9,2.2,2c0,1.4-1,2.3-2.7,2.3C46.6,20.2,45.8,19.6,45.1,18.8z"/>
		<path class="st12" d="M52.1,16.4c0-2.3,1.3-3.8,3.3-3.8c1.9,0,3.1,1.5,3.1,3.5v0.5h-5.2V17c0,1.2,0.8,2.2,2.1,2.2
			c0.9,0,1.6-0.4,2-1.2l0.8,0.6c-0.5,1-1.5,1.7-2.9,1.7C53.4,20.2,52.1,18.7,52.1,16.4z M53.3,15.7L53.3,15.7l4,0.1v-0.2
			c0-1.3-0.8-2.1-1.9-2.1C54.1,13.5,53.3,14.5,53.3,15.7z"/>
		<path class="st12" d="M60.3,20v-7.2h1.1V14h0.1c0.4-0.8,1-1.3,2-1.3c1.5,0,2.4,1,2.4,2.8V20h-1.1v-4.4c0-1.3-0.6-1.9-1.6-1.9
			c-0.9,0-1.8,0.4-1.8,1.4v5h-1.1V20z"/>
		<path class="st12" d="M69.9,20c-0.8,0-1.2-0.5-1.2-1.2v-5.1h-1.2v-1h0.7c0.5,0,0.6-0.2,0.6-0.7v-1.3h1v2h1.6v1h-1.6V19h1.5v1H69.9
			z"/>
		<path class="st12" d="M72.5,18.8l0.8-0.6c0.6,0.7,1.2,1.1,2.1,1.1c1,0,1.5-0.4,1.5-1.2c0-0.6-0.3-1-1.3-1.1L75,16.9
			c-1.3-0.2-2.3-0.7-2.3-2.1s1.1-2.1,2.6-2.1c1.2,0,1.9,0.4,2.5,1.2l-0.7,0.7c-0.3-0.4-0.9-0.9-1.9-0.9c-0.9,0-1.4,0.4-1.4,1.1
			c0,0.7,0.5,1,1.4,1.1l0.6,0.1c1.6,0.2,2.2,0.9,2.2,2c0,1.4-1,2.3-2.7,2.3C74,20.2,73.1,19.6,72.5,18.8z"/>
		<path class="st12" d="M83.3,12.8h1.1V14h0.1c0.4-0.9,1.1-1.3,2.1-1.3c1.8,0,2.9,1.5,2.9,3.8s-1.1,3.8-2.9,3.8
			c-1,0-1.7-0.4-2.1-1.3h-0.1v4h-1.1V12.8z M88.3,17v-1.2c0-1.3-0.8-2.2-2-2.2c-1,0-1.9,0.6-1.9,1.4v2.7c0,0.9,0.8,1.5,1.9,1.5
			C87.5,19.2,88.3,18.3,88.3,17z"/>
		<path class="st12" d="M90.9,16.4c0-2.3,1.3-3.8,3.3-3.8c1.9,0,3.3,1.5,3.3,3.8s-1.3,3.8-3.3,3.8C92.2,20.2,90.9,18.7,90.9,16.4z
			 M96.2,16.9v-1c0-1.5-0.9-2.3-2.1-2.3S92,14.3,92,15.9v1c0,1.5,0.9,2.3,2.1,2.3C95.4,19.2,96.2,18.4,96.2,16.9z"/>
		<path class="st12" d="M99.3,12.8h1.1V14h0.1c0.4-0.9,1.1-1.3,2.1-1.3c1.8,0,2.9,1.5,2.9,3.8s-1.1,3.8-2.9,3.8
			c-1,0-1.7-0.4-2.1-1.3h-0.1v4h-1.1V12.8z M104.3,17v-1.2c0-1.3-0.8-2.2-2-2.2c-1,0-1.9,0.6-1.9,1.4v2.7c0,0.9,0.8,1.5,1.9,1.5
			C103.5,19.2,104.3,18.3,104.3,17z"/>
		<path class="st12" d="M111.8,18.8L111.8,18.8c-0.3,0.7-0.9,1.3-2.1,1.3c-1.5,0-2.4-1-2.4-2.8v-4.6h1.1v4.4c0,1.3,0.6,1.9,1.7,1.9
			c0.9,0,1.8-0.4,1.8-1.4v-5h1.1V20h-1.1L111.8,18.8L111.8,18.8z"/>
		<path class="st12" d="M116.5,20c-0.8,0-1.2-0.5-1.2-1.2V9.6h1.1V19h1.1v1H116.5z"/>
		<path class="st12" d="M124.4,20c-0.8,0-1.2-0.5-1.2-1.2h-0.1c-0.3,0.9-1.1,1.3-2.1,1.3c-1.5,0-2.4-0.8-2.4-2.2
			c0-1.4,1-2.1,3.1-2.1h1.4v-0.7c0-1-0.6-1.6-1.7-1.6c-0.9,0-1.4,0.4-1.8,1.1l-0.7-0.6c0.4-0.8,1.3-1.4,2.6-1.4
			c1.7,0,2.8,0.9,2.8,2.4v4h0.8v1C125.1,20,124.4,20,124.4,20z M123.1,17.9v-1.2h-1.5c-1.3,0-1.8,0.4-1.8,1.1v0.3
			c0,0.7,0.6,1.1,1.4,1.1C122.3,19.2,123.1,18.6,123.1,17.9z"/>
		<path class="st12" d="M128.2,20c-0.8,0-1.2-0.5-1.2-1.2v-5.1h-1.2v-1h0.7c0.5,0,0.6-0.2,0.6-0.7v-1.3h1v2h1.6v1h-1.6V19h1.5v1
			H128.2z"/>
		<path class="st12" d="M131.4,10.5v-0.2c0-0.4,0.2-0.6,0.7-0.6s0.7,0.3,0.7,0.6v0.2c0,0.4-0.2,0.6-0.7,0.6S131.4,10.8,131.4,10.5z
			 M131.5,12.8h1.1V20h-1.1V12.8z"/>
		<path class="st12" d="M134.5,16.4c0-2.3,1.3-3.8,3.3-3.8c1.9,0,3.3,1.5,3.3,3.8s-1.3,3.8-3.3,3.8
			C135.8,20.2,134.5,18.7,134.5,16.4z M139.8,16.9v-1c0-1.5-0.9-2.3-2.1-2.3c-1.2,0-2.1,0.7-2.1,2.3v1c0,1.5,0.9,2.3,2.1,2.3
			C139,19.2,139.8,18.4,139.8,16.9z"/>
		<path class="st12" d="M142.9,20v-7.2h1.1V14h0.1c0.4-0.8,1-1.3,2-1.3c1.5,0,2.4,1,2.4,2.8V20h-1.1v-4.4c0-1.3-0.6-1.9-1.6-1.9
			c-0.9,0-1.8,0.4-1.8,1.4v5h-1.1V20z"/>
	</g>
</g>
<g>
	<rect x="584.9" y="695" class="st2" width="10" height="25"/>
	<rect x="584.9" y="670" class="st3" width="10" height="25"/>
	<rect x="584.9" y="645" class="st5" width="10" height="25"/>
	<rect x="584.9" y="620" class="st4" width="10" height="25"/>
	<rect x="584.9" y="595" class="st6" width="10" height="25"/>
	<rect x="584.9" y="570" class="st7" width="10" height="25"/>
	<rect x="584.9" y="545" class="st10" width="10" height="25"/>
	<rect x="584.9" y="520" class="st9" width="10" height="25"/>
	<rect x="584.9" y="495" class="st8" width="10" height="25"/>
	<g class="st0">
		<path d="M591.4,468.8L591.4,468.8c-0.2,0.8-1.1,1.4-2.4,1.4c-2.1,0-3.5-1.5-3.5-4.3c0-2.8,1.4-4.3,3.6-4.3c1.5,0,2.5,0.7,3,1.8
			l-0.8,0.5c-0.4-0.9-1.2-1.4-2.2-1.4c-1.5,0-2.5,1.1-2.5,2.7v1.4c0,1.7,1,2.8,2.6,2.8c1.2,0,2.1-0.6,2.1-1.8v-0.8h-1.8v-0.9h2.8
			v4.3h-0.9V468.8z"/>
		<path d="M598.8,470c-0.7,0-1-0.4-1.1-1h-0.1c-0.3,0.8-0.9,1.2-1.8,1.2c-1.3,0-2.1-0.7-2.1-1.9c0-1.2,0.8-1.8,2.6-1.8h1.2v-0.6
			c0-0.9-0.5-1.4-1.5-1.4c-0.7,0-1.2,0.4-1.6,0.9l-0.6-0.5c0.3-0.7,1.1-1.2,2.2-1.2c1.5,0,2.4,0.8,2.4,2.1v3.4h0.7v0.8H598.8z
			 M597.6,468.2v-1h-1.3c-1.1,0-1.6,0.3-1.6,0.9v0.3c0,0.6,0.5,1,1.2,1C596.9,469.3,597.6,468.8,597.6,468.2z"/>
		<path d="M600.6,461.8v-0.2c0-0.3,0.2-0.5,0.6-0.5s0.6,0.2,0.6,0.5v0.2c0,0.3-0.2,0.5-0.6,0.5S600.6,462.1,600.6,461.8z
			 M600.7,463.8h1v6.2h-1V463.8z"/>
		<path d="M603.7,470v-6.2h1v1h0c0.3-0.7,0.8-1.2,1.8-1.2c1.3,0,2.1,0.9,2.1,2.4v4h-1v-3.8c0-1.1-0.5-1.7-1.4-1.7
			c-0.8,0-1.5,0.4-1.5,1.2v4.3H603.7z"/>
		<path d="M613.2,461.8v-0.2c0-0.3,0.2-0.5,0.6-0.5s0.6,0.2,0.6,0.5v0.2c0,0.3-0.2,0.5-0.6,0.5S613.2,462.1,613.2,461.8z
			 M613.3,463.8h1v6.2h-1V463.8z"/>
		<path d="M616.3,470v-6.2h1v1h0c0.3-0.7,0.8-1.2,1.8-1.2c1.3,0,2.1,0.9,2.1,2.4v4h-1v-3.8c0-1.1-0.5-1.7-1.4-1.7
			c-0.8,0-1.5,0.4-1.5,1.2v4.3H616.3z"/>
		<path d="M627,470c-0.7,0-1-0.4-1-1v-7.9h1v8h0.9v0.8H627z"/>
		<path d="M629.1,461.8v-0.2c0-0.3,0.2-0.5,0.6-0.5s0.6,0.2,0.6,0.5v0.2c0,0.3-0.2,0.5-0.6,0.5S629.1,462.1,629.1,461.8z
			 M629.2,463.8h1v6.2h-1V463.8z"/>
		<path d="M632.6,464.7h-1v-0.8h1v-1.2c0-0.9,0.4-1.4,1.4-1.4h0.9v0.8h-1.3v1.8h1.3v0.8h-1.3v5.3h-1V464.7z"/>
		<path d="M635.6,466.9c0-2,1.1-3.2,2.8-3.2c1.7,0,2.7,1.3,2.7,3v0.5h-4.4v0.3c0,1.1,0.7,1.9,1.8,1.9c0.8,0,1.4-0.4,1.7-1.1l0.7,0.5
			c-0.4,0.8-1.3,1.4-2.4,1.4C636.7,470.1,635.6,468.9,635.6,466.9z M636.6,466.3L636.6,466.3l3.4,0.1v-0.1c0-1.1-0.7-1.8-1.6-1.8
			C637.4,464.5,636.6,465.3,636.6,466.3z"/>
	</g>
	<g class="st0">
		<path d="M585.5,481.9c0-2,1.1-3.2,2.8-3.2c1.7,0,2.7,1.3,2.7,3v0.5h-4.4v0.3c0,1.1,0.7,1.9,1.8,1.9c0.8,0,1.4-0.4,1.7-1.1l0.7,0.5
			c-0.4,0.8-1.3,1.4-2.4,1.4C586.6,485.1,585.5,483.9,585.5,481.9z M586.5,481.3L586.5,481.3l3.4,0.1v-0.1c0-1.1-0.7-1.8-1.6-1.8
			C587.2,479.5,586.5,480.3,586.5,481.3z"/>
		<path d="M593.9,481.9l-2.2-3.1h1.1l1.6,2.3h0l1.6-2.3h1.1l-2.2,3l2.2,3.2H596l-1.6-2.4h0l-1.7,2.4h-1.1L593.9,481.9z"/>
		<path d="M598.4,478.8h1v1h0c0.3-0.8,1-1.2,1.8-1.2c1.5,0,2.5,1.3,2.5,3.2c0,2-1,3.2-2.5,3.2c-0.9,0-1.4-0.4-1.8-1.2h0v3.4h-1
			V478.8z M602.8,482.4v-1.1c0-1.1-0.7-1.8-1.8-1.8c-0.9,0-1.6,0.5-1.6,1.2v2.3c0,0.8,0.7,1.3,1.6,1.3
			C602.1,484.3,602.8,483.5,602.8,482.4z"/>
		<path d="M605,481.9c0-2,1.1-3.2,2.8-3.2c1.7,0,2.7,1.3,2.7,3v0.5H606v0.3c0,1.1,0.7,1.9,1.8,1.9c0.8,0,1.4-0.4,1.7-1.1l0.7,0.5
			c-0.4,0.8-1.3,1.4-2.4,1.4C606.1,485.1,605,483.9,605,481.9z M606,481.3L606,481.3l3.4,0.1v-0.1c0-1.1-0.7-1.8-1.6-1.8
			C606.7,479.5,606,480.3,606,481.3z"/>
		<path d="M611.5,481.9c0-2,1-3.2,2.8-3.2c1.2,0,2,0.6,2.3,1.5l-0.8,0.4c-0.2-0.6-0.8-1-1.5-1c-1.1,0-1.7,0.8-1.7,1.9v1.1
			c0,1.1,0.6,1.9,1.7,1.9c0.8,0,1.3-0.4,1.7-1.1l0.7,0.5c-0.4,0.9-1.2,1.5-2.4,1.5C612.6,485.1,611.5,483.9,611.5,481.9z"/>
		<path d="M619.4,485c-0.7,0-1-0.4-1-1v-4.3h-1v-0.8h0.6c0.4,0,0.5-0.1,0.5-0.6v-1.2h0.9v1.7h1.4v0.8h-1.4v4.5h1.3v0.8H619.4z"/>
		<path d="M626.7,485c-0.7,0-1-0.4-1.1-1h-0.1c-0.3,0.8-0.9,1.2-1.8,1.2c-1.3,0-2.1-0.7-2.1-1.9c0-1.2,0.8-1.8,2.6-1.8h1.2v-0.6
			c0-0.9-0.5-1.4-1.5-1.4c-0.7,0-1.2,0.4-1.6,0.9l-0.6-0.5c0.3-0.7,1.1-1.2,2.2-1.2c1.5,0,2.4,0.8,2.4,2.1v3.4h0.7v0.8H626.7z
			 M625.6,483.2v-1h-1.3c-1.1,0-1.6,0.3-1.6,0.9v0.3c0,0.6,0.5,1,1.2,1C624.9,484.3,625.6,483.8,625.6,483.2z"/>
		<path d="M628.7,485v-6.2h1v1h0c0.3-0.7,0.8-1.2,1.8-1.2c1.3,0,2.1,0.9,2.1,2.4v4h-1v-3.8c0-1.1-0.5-1.7-1.4-1.7
			c-0.8,0-1.5,0.4-1.5,1.2v4.3H628.7z"/>
		<path d="M635,481.9c0-2,1-3.2,2.8-3.2c1.2,0,2,0.6,2.3,1.5l-0.8,0.4c-0.2-0.6-0.8-1-1.5-1c-1.1,0-1.7,0.8-1.7,1.9v1.1
			c0,1.1,0.6,1.9,1.7,1.9c0.8,0,1.3-0.4,1.7-1.1l0.7,0.5c-0.4,0.9-1.2,1.5-2.4,1.5C636,485.1,635,483.9,635,481.9z"/>
		<path d="M645.3,478.8h0.9l-2.8,7.6c-0.3,0.7-0.5,1-1.4,1h-0.5v-0.8h1l0.5-1.3l-2.3-6.4h1l1.5,4.2l0.3,1h0.1l0.3-1L645.3,478.8z"/>
	</g>
	<g class="st0">
		<path d="M601,707.2v-1l5-3v1l-4.1,2.4v0.1l4.1,2.4v1L601,707.2z"/>
		<path d="M610.7,705.8c0-2.7,0.9-4.3,2.9-4.3s2.9,1.6,2.9,4.3s-0.9,4.3-2.9,4.3S610.7,708.5,610.7,705.8z M615.4,706.5v-1.4
			c0-1.6-0.5-2.8-1.8-2.8s-1.8,1.2-1.8,2.8v1.4c0,1.6,0.5,2.8,1.8,2.8S615.4,708.1,615.4,706.5z"/>
		<path d="M618,709.4v-0.2c0-0.4,0.2-0.7,0.7-0.7c0.5,0,0.7,0.3,0.7,0.7v0.2c0,0.4-0.2,0.7-0.7,0.7C618.3,710.1,618,709.9,618,709.4
			z"/>
		<path d="M621.5,710v-0.9h2.3v-6.7h-0.1l-2.1,2l-0.6-0.6l2.2-2.1h1.6v7.5h2.2v0.9H621.5z"/>
		<path d="M635.3,703.8h0.9l-2.8,7.6c-0.3,0.7-0.5,1-1.4,1h-0.5v-0.8h1l0.5-1.3l-2.3-6.4h1l1.5,4.2l0.3,1h0.1l0.3-1L635.3,703.8z"/>
		<path d="M637.4,710v-6.2h1v1.1h0.1c0.2-0.6,0.8-1.1,1.8-1.1h0.4v1H640c-1,0-1.7,0.4-1.7,1v4.2H637.4z"/>
		<path d="M641.3,708.9l0.7-0.6c0.5,0.6,1.1,0.9,1.8,0.9c0.8,0,1.3-0.4,1.3-1c0-0.5-0.3-0.9-1.1-1l-0.5-0.1c-1.1-0.2-2-0.6-2-1.8
			c0-1.2,0.9-1.8,2.2-1.8c1,0,1.7,0.4,2.2,1l-0.6,0.6c-0.3-0.4-0.8-0.8-1.6-0.8s-1.2,0.4-1.2,1c0,0.6,0.4,0.8,1.2,1l0.5,0.1
			c1.4,0.2,1.9,0.8,1.9,1.7c0,1.2-0.9,1.9-2.3,1.9C642.6,710.1,641.8,709.7,641.3,708.9z"/>
	</g>
	<g class="st0">
		<path d="M600.6,680.8c0-2.7,0.9-4.3,2.9-4.3c2,0,2.9,1.6,2.9,4.3s-0.9,4.3-2.9,4.3C601.5,685.1,600.6,683.5,600.6,680.8z
			 M605.3,681.5v-1.4c0-1.6-0.5-2.8-1.8-2.8c-1.3,0-1.8,1.2-1.8,2.8v1.4c0,1.6,0.5,2.8,1.8,2.8C604.8,684.3,605.3,683.1,605.3,681.5
			z"/>
		<path d="M608,684.4v-0.2c0-0.4,0.2-0.7,0.7-0.7c0.5,0,0.7,0.3,0.7,0.7v0.2c0,0.4-0.2,0.7-0.7,0.7C608.2,685.1,608,684.9,608,684.4
			z"/>
		<path d="M611.4,685v-0.9h2.3v-6.7h-0.1l-2.1,2l-0.6-0.6l2.2-2.1h1.6v7.5h2.2v0.9H611.4z"/>
		<path d="M618.4,681.9v-1h3.1v1H618.4z"/>
		<path d="M623.4,685v-0.9h2.3v-6.7h-0.1l-2.1,2l-0.6-0.6l2.2-2.1h1.6v7.5h2.2v0.9H623.4z"/>
		<path d="M637.2,678.8h0.9l-2.8,7.6c-0.3,0.7-0.5,1-1.4,1h-0.5v-0.8h1l0.5-1.3l-2.3-6.4h1l1.5,4.2l0.3,1h0.1l0.3-1L637.2,678.8z"/>
		<path d="M639.4,685v-6.2h1v1.1h0.1c0.2-0.6,0.8-1.1,1.8-1.1h0.4v1H642c-1,0-1.7,0.4-1.7,1v4.2H639.4z"/>
		<path d="M643.2,683.9l0.7-0.6c0.5,0.6,1.1,0.9,1.8,0.9c0.8,0,1.3-0.4,1.3-1c0-0.5-0.3-0.9-1.1-1l-0.5-0.1c-1.1-0.2-2-0.6-2-1.8
			c0-1.2,0.9-1.8,2.2-1.8c1,0,1.7,0.4,2.2,1l-0.6,0.6c-0.3-0.4-0.8-0.8-1.6-0.8s-1.2,0.4-1.2,1c0,0.6,0.4,0.8,1.2,1l0.5,0.1
			c1.4,0.2,1.9,0.8,1.9,1.7c0,1.2-0.9,1.9-2.3,1.9C644.5,685.1,643.8,684.7,643.2,683.9z"/>
	</g>
	<g class="st0">
		<path d="M601,660v-0.9h2.3v-6.7h-0.1l-2.1,2l-0.6-0.6l2.2-2.1h1.6v7.5h2.2v0.9H601z"/>
		<path d="M607.9,656.9v-1h3.1v1H607.9z"/>
		<path d="M618.3,660h-5.5v-1l2.7-2.5c0.8-0.7,1.4-1.6,1.4-2.4v-0.1c0-0.9-0.5-1.6-1.5-1.6c-1,0-1.5,0.6-1.7,1.4l-0.9-0.3
			c0.3-1,1.1-2,2.7-2c1.6,0,2.6,1,2.6,2.4c0,1.3-0.8,2.2-1.8,3.2l-2.3,2h4.4V660z"/>
		<path d="M626.8,653.8h0.9l-2.8,7.6c-0.3,0.7-0.5,1-1.4,1H623v-0.8h1l0.5-1.3l-2.3-6.4h1l1.5,4.2l0.3,1h0.1l0.3-1L626.8,653.8z"/>
		<path d="M628.9,660v-6.2h1v1.1h0.1c0.2-0.6,0.8-1.1,1.8-1.1h0.4v1h-0.6c-1,0-1.7,0.4-1.7,1v4.2H628.9z"/>
		<path d="M632.7,658.9l0.7-0.6c0.5,0.6,1.1,0.9,1.8,0.9c0.8,0,1.3-0.4,1.3-1c0-0.5-0.3-0.9-1.1-1l-0.5-0.1c-1.1-0.2-2-0.6-2-1.8
			c0-1.2,0.9-1.8,2.2-1.8c1,0,1.7,0.4,2.2,1l-0.6,0.6c-0.3-0.4-0.8-0.8-1.6-0.8s-1.2,0.4-1.2,1c0,0.6,0.4,0.8,1.2,1l0.5,0.1
			c1.4,0.2,1.9,0.8,1.9,1.7c0,1.2-0.9,1.9-2.3,1.9C634.1,660.1,633.3,659.7,632.7,658.9z"/>
	</g>
	<g class="st0">
		<path d="M606.3,635h-5.5v-1l2.7-2.5c0.8-0.7,1.4-1.6,1.4-2.4v-0.1c0-0.9-0.5-1.6-1.5-1.6c-1,0-1.5,0.6-1.7,1.4l-0.9-0.3
			c0.3-1,1.1-2,2.7-2c1.6,0,2.6,1,2.6,2.4c0,1.3-0.8,2.2-1.8,3.2l-2.3,2h4.4V635z"/>
		<path d="M607.9,631.9v-1h3.1v1H607.9z"/>
		<path d="M615,630.2c1.1,0,1.7-0.6,1.7-1.4v-0.1c0-0.9-0.6-1.3-1.5-1.3c-0.9,0-1.4,0.4-1.7,1l-0.7-0.6c0.4-0.7,1.2-1.4,2.5-1.4
			c1.4,0,2.5,0.8,2.5,2.1c0,1.1-0.7,1.7-1.6,2v0c0.9,0.2,1.8,0.9,1.8,2.1c0,1.4-1.1,2.4-2.8,2.4c-1.5,0-2.2-0.7-2.7-1.4l0.8-0.6
			c0.4,0.7,0.9,1.1,1.9,1.1c1.2,0,1.8-0.6,1.8-1.5v-0.1c0-1-0.6-1.5-1.8-1.5h-1v-0.9H615z"/>
		<path d="M626.8,628.8h0.9l-2.8,7.6c-0.3,0.7-0.5,1-1.4,1H623v-0.8h1l0.5-1.3l-2.3-6.4h1l1.5,4.2l0.3,1h0.1l0.3-1L626.8,628.8z"/>
		<path d="M628.9,635v-6.2h1v1.1h0.1c0.2-0.6,0.8-1.1,1.8-1.1h0.4v1h-0.6c-1,0-1.7,0.4-1.7,1v4.2H628.9z"/>
		<path d="M632.7,633.9l0.7-0.6c0.5,0.6,1.1,0.9,1.8,0.9c0.8,0,1.3-0.4,1.3-1c0-0.5-0.3-0.9-1.1-1l-0.5-0.1c-1.1-0.2-2-0.6-2-1.8
			c0-1.2,0.9-1.8,2.2-1.8c1,0,1.7,0.4,2.2,1l-0.6,0.6c-0.3-0.4-0.8-0.8-1.6-0.8s-1.2,0.4-1.2,1c0,0.6,0.4,0.8,1.2,1l0.5,0.1
			c1.4,0.2,1.9,0.8,1.9,1.7c0,1.2-0.9,1.9-2.3,1.9C634.1,635.1,633.3,634.7,632.7,633.9z"/>
	</g>
	<g class="st0">
		<path d="M603,605.2c1.1,0,1.7-0.6,1.7-1.4v-0.1c0-0.9-0.6-1.3-1.5-1.3c-0.9,0-1.4,0.4-1.7,1l-0.7-0.6c0.4-0.7,1.2-1.4,2.5-1.4
			c1.4,0,2.5,0.8,2.5,2.1c0,1.1-0.7,1.7-1.6,2v0c0.9,0.2,1.8,0.9,1.8,2.1c0,1.4-1.1,2.4-2.8,2.4c-1.5,0-2.2-0.7-2.7-1.4l0.8-0.6
			c0.4,0.7,0.9,1.1,1.9,1.1c1.2,0,1.8-0.6,1.8-1.5v-0.1c0-1-0.6-1.5-1.8-1.5h-1v-0.9H603z"/>
		<path d="M607.9,606.9v-1h3.1v1H607.9z"/>
		<path d="M616.4,610v-1.6h-4v-0.9l3.5-5.8h1.5v5.9h1.2v0.8h-1.2v1.6H616.4z M613.3,607.5h3.1v-5.1h-0.1L613.3,607.5z"/>
		<path d="M626.8,603.8h0.9l-2.8,7.6c-0.3,0.7-0.5,1-1.4,1H623v-0.8h1l0.5-1.3l-2.3-6.4h1l1.5,4.2l0.3,1h0.1l0.3-1L626.8,603.8z"/>
		<path d="M628.9,610v-6.2h1v1.1h0.1c0.2-0.6,0.8-1.1,1.8-1.1h0.4v1h-0.6c-1,0-1.7,0.4-1.7,1v4.2H628.9z"/>
		<path d="M632.7,608.9l0.7-0.6c0.5,0.6,1.1,0.9,1.8,0.9c0.8,0,1.3-0.4,1.3-1c0-0.5-0.3-0.9-1.1-1l-0.5-0.1c-1.1-0.2-2-0.6-2-1.8
			c0-1.2,0.9-1.8,2.2-1.8c1,0,1.7,0.4,2.2,1l-0.6,0.6c-0.3-0.4-0.8-0.8-1.6-0.8s-1.2,0.4-1.2,1c0,0.6,0.4,0.8,1.2,1l0.5,0.1
			c1.4,0.2,1.9,0.8,1.9,1.7c0,1.2-0.9,1.9-2.3,1.9C634.1,610.1,633.3,609.7,632.7,608.9z"/>
	</g>
	<g class="st0">
		<path d="M604.4,585v-1.6h-4v-0.9l3.5-5.8h1.5v5.9h1.2v0.8h-1.2v1.6H604.4z M601.3,582.5h3.1v-5.1h-0.1L601.3,582.5z"/>
		<path d="M607.9,581.9v-1h3.1v1H607.9z"/>
		<path d="M617.9,577.5h-3.7l-0.2,3.2h0.1c0.4-0.6,0.8-0.9,1.7-0.9c1.4,0,2.5,1,2.5,2.6c0,1.6-1.1,2.8-2.8,2.8
			c-1.4,0-2.1-0.7-2.6-1.4l0.8-0.6c0.4,0.7,0.9,1.1,1.9,1.1c1.1,0,1.8-0.6,1.8-1.7v-0.1c0-1.1-0.6-1.7-1.8-1.7
			c-0.8,0-1.2,0.3-1.5,0.7l-0.9-0.1l0.3-4.6h4.5V577.5z"/>
		<path d="M626.8,578.8h0.9l-2.8,7.6c-0.3,0.7-0.5,1-1.4,1H623v-0.8h1l0.5-1.3l-2.3-6.4h1l1.5,4.2l0.3,1h0.1l0.3-1L626.8,578.8z"/>
		<path d="M628.9,585v-6.2h1v1.1h0.1c0.2-0.6,0.8-1.1,1.8-1.1h0.4v1h-0.6c-1,0-1.7,0.4-1.7,1v4.2H628.9z"/>
		<path d="M632.7,583.9l0.7-0.6c0.5,0.6,1.1,0.9,1.8,0.9c0.8,0,1.3-0.4,1.3-1c0-0.5-0.3-0.9-1.1-1l-0.5-0.1c-1.1-0.2-2-0.6-2-1.8
			c0-1.2,0.9-1.8,2.2-1.8c1,0,1.7,0.4,2.2,1l-0.6,0.6c-0.3-0.4-0.8-0.8-1.6-0.8s-1.2,0.4-1.2,1c0,0.6,0.4,0.8,1.2,1l0.5,0.1
			c1.4,0.2,1.9,0.8,1.9,1.7c0,1.2-0.9,1.9-2.3,1.9C634.1,585.1,633.3,584.7,632.7,583.9z"/>
	</g>
	<g class="st0">
		<path d="M605.9,552.5h-3.7l-0.2,3.2h0.1c0.4-0.6,0.8-0.9,1.7-0.9c1.4,0,2.5,1,2.5,2.6c0,1.6-1.1,2.8-2.8,2.8
			c-1.4,0-2.1-0.7-2.6-1.4l0.8-0.6c0.4,0.7,0.9,1.1,1.9,1.1c1.1,0,1.8-0.6,1.8-1.7v-0.1c0-1.1-0.6-1.7-1.8-1.7
			c-0.8,0-1.2,0.3-1.5,0.7l-0.9-0.1l0.3-4.6h4.5V552.5z"/>
		<path d="M607.9,556.9v-1h3.1v1H607.9z"/>
		<path d="M612.7,556.9c0-2.5,1.6-4.4,3-5.3h1.3c-1.8,1.3-2.8,2.4-3.2,4.3l0.1,0c0.4-0.7,1-1.2,2-1.2c1.4,0,2.5,1,2.5,2.6
			c0,1.6-1.1,2.8-2.8,2.8C613.8,560.1,612.7,558.9,612.7,556.9z M617.2,557.5L617.2,557.5c0-1.2-0.6-1.9-1.8-1.9s-1.8,0.6-1.8,1.8
			v0.1c0,1.1,0.6,1.8,1.8,1.8S617.2,558.6,617.2,557.5z"/>
		<path d="M626.8,553.8h0.9l-2.8,7.6c-0.3,0.7-0.5,1-1.4,1H623v-0.8h1l0.5-1.3l-2.3-6.4h1l1.5,4.2l0.3,1h0.1l0.3-1L626.8,553.8z"/>
		<path d="M628.9,560v-6.2h1v1.1h0.1c0.2-0.6,0.8-1.1,1.8-1.1h0.4v1h-0.6c-1,0-1.7,0.4-1.7,1v4.2H628.9z"/>
		<path d="M632.7,558.9l0.7-0.6c0.5,0.6,1.1,0.9,1.8,0.9c0.8,0,1.3-0.4,1.3-1c0-0.5-0.3-0.9-1.1-1l-0.5-0.1c-1.1-0.2-2-0.6-2-1.8
			c0-1.2,0.9-1.8,2.2-1.8c1,0,1.7,0.4,2.2,1l-0.6,0.6c-0.3-0.4-0.8-0.8-1.6-0.8s-1.2,0.4-1.2,1c0,0.6,0.4,0.8,1.2,1l0.5,0.1
			c1.4,0.2,1.9,0.8,1.9,1.7c0,1.2-0.9,1.9-2.3,1.9C634.1,560.1,633.3,559.7,632.7,558.9z"/>
	</g>
	<g class="st0">
		<path d="M600.7,531.9c0-2.5,1.6-4.4,3-5.3h1.3c-1.8,1.3-2.8,2.4-3.2,4.3l0.1,0c0.4-0.7,1-1.2,2-1.2c1.4,0,2.5,1,2.5,2.6
			c0,1.6-1.1,2.8-2.8,2.8C601.8,535.1,600.7,533.9,600.7,531.9z M605.2,532.5L605.2,532.5c0-1.2-0.6-1.9-1.8-1.9s-1.8,0.6-1.8,1.8
			v0.1c0,1.1,0.6,1.8,1.8,1.8S605.2,533.6,605.2,532.5z"/>
		<path d="M607.9,531.9v-1h3.1v1H607.9z"/>
		<path d="M614,535l3.2-7.5h-3.6v1.6h-0.9v-2.4h5.5v0.9l-3.1,7.5H614z"/>
		<path d="M626.8,528.8h0.9l-2.8,7.6c-0.3,0.7-0.5,1-1.4,1H623v-0.8h1l0.5-1.3l-2.3-6.4h1l1.5,4.2l0.3,1h0.1l0.3-1L626.8,528.8z"/>
		<path d="M628.9,535v-6.2h1v1.1h0.1c0.2-0.6,0.8-1.1,1.8-1.1h0.4v1h-0.6c-1,0-1.7,0.4-1.7,1v4.2H628.9z"/>
		<path d="M632.7,533.9l0.7-0.6c0.5,0.6,1.1,0.9,1.8,0.9c0.8,0,1.3-0.4,1.3-1c0-0.5-0.3-0.9-1.1-1l-0.5-0.1c-1.1-0.2-2-0.6-2-1.8
			c0-1.2,0.9-1.8,2.2-1.8c1,0,1.7,0.4,2.2,1l-0.6,0.6c-0.3-0.4-0.8-0.8-1.6-0.8s-1.2,0.4-1.2,1c0,0.6,0.4,0.8,1.2,1l0.5,0.1
			c1.4,0.2,1.9,0.8,1.9,1.7c0,1.2-0.9,1.9-2.3,1.9C634.1,535.1,633.3,534.7,632.7,533.9z"/>
	</g>
	<g class="st0">
		<path d="M601,509.1l4.1-2.4v-0.1l-4.1-2.4v-1l5,3v1l-5,3V509.1z"/>
		<path d="M612,510l3.2-7.5h-3.6v1.6h-0.9v-2.4h5.5v0.9l-3.1,7.5H612z"/>
		<path d="M624.8,503.8h0.9l-2.8,7.6c-0.3,0.7-0.5,1-1.4,1H621v-0.8h1l0.5-1.3l-2.3-6.4h1l1.5,4.2l0.3,1h0.1l0.3-1L624.8,503.8z"/>
		<path d="M627,510v-6.2h1v1.1h0.1c0.2-0.6,0.8-1.1,1.8-1.1h0.4v1h-0.6c-1,0-1.7,0.4-1.7,1v4.2H627z"/>
		<path d="M630.8,508.9l0.7-0.6c0.5,0.6,1.1,0.9,1.8,0.9c0.8,0,1.3-0.4,1.3-1c0-0.5-0.3-0.9-1.1-1l-0.5-0.1c-1.1-0.2-2-0.6-2-1.8
			c0-1.2,0.9-1.8,2.2-1.8c1,0,1.7,0.4,2.2,1l-0.6,0.6c-0.3-0.4-0.8-0.8-1.6-0.8c-0.8,0-1.2,0.4-1.2,1c0,0.6,0.4,0.8,1.2,1l0.5,0.1
			c1.4,0.2,1.9,0.8,1.9,1.7c0,1.2-0.9,1.9-2.3,1.9C632.1,510.1,631.3,509.7,630.8,508.9z"/>
	</g>
</g>
</svg>
