<?xml version="1.0" encoding="utf-8"?>
<!-- Generator: Adobe Illustrator 23.0.3, SVG Export Plug-In . SVG Version: 6.00 Build 0)  -->
<svg version="1.1" id="Layer_1" xmlns="http://www.w3.org/2000/svg" xmlns:xlink="http://www.w3.org/1999/xlink" x="0px" y="0px"
	 viewBox="0 0 382 38.1" style="enable-background:new 0 0 382 38.1;" xml:space="preserve">
<style type="text/css">
	.st0{fill:#D4E8C1;}
	.st1{fill:#F3C654;}
	.st2{fill:#F28124;}
	.st3{fill:#C94227;}
	.st4{fill:#A42614;}
	.st5{fill:#800000;}
	.st6{fill:#440012;}
	.st7{fill:#AAAAAA;}
</style>
<g>
	<rect x="10" y="-787.3" class="st0" width="16.3" height="14"/>
</g>
<g>
	<rect x="26.3" y="-787.3" class="st1" width="31.9" height="14"/>
</g>
<g>
	<rect x="58.2" y="-787.3" class="st2" width="27.2" height="14"/>
</g>
<g>
	<rect x="85.4" y="-787.3" class="st3" width="129.1" height="14"/>
</g>
<g>
	<rect x="214.5" y="-787.3" class="st4" width="135.9" height="14"/>
</g>
<g>
	<rect x="350.3" y="-787.3" class="st5" width="339.7" height="14"/>
</g>
<g>
	<polygon class="st6" points="762.3,-773.3 689.7,-773.3 689.7,-787.3 762.3,-787.3 772.3,-780.3 	"/>
</g>
<g>
	<g>
		<rect x="359.6" y="15.7" class="st6" width="22.4" height="10"/>
		<rect x="0" y="15.7" class="st0" width="10.9" height="10"/>
		<rect x="10.9" y="15.7" class="st1" width="21.4" height="10"/>
		<rect x="32.3" y="15.7" class="st2" width="18.2" height="10"/>
		<rect x="50.4" y="15.7" class="st3" width="86.3" height="10"/>
		<rect x="136.8" y="15.7" class="st4" width="90.9" height="10"/>
		<rect x="227.6" y="15.7" class="st5" width="132.4" height="10"/>
	</g>
	<g>
		<path class="st7" d="M5.2,38v-0.9h2.3v-6.7H7.5l-2.1,2l-0.6-0.6L7,29.6h1.6v7.5h2.2V38H5.2z"/>
		<path class="st7" d="M17.8,38h-5.5v-1l2.7-2.5c0.8-0.7,1.4-1.6,1.4-2.4v-0.1c0-0.9-0.5-1.6-1.5-1.6c-1,0-1.5,0.6-1.7,1.4l-0.9-0.3
			c0.3-1,1.1-2,2.7-2c1.6,0,2.6,1,2.6,2.4c0,1.3-0.8,2.2-1.8,3.2l-2.3,2h4.4V38z"/>
	</g>
	<g>
		<path class="st7" d="M1.4,11.4V2.8h1v3.8c0,1.1,0.5,1.7,1.4,1.7c0.8,0,1.5-0.4,1.5-1.2V2.8h1V9h-1V8h0C5,8.5,4.5,9.1,3.5,9.1
			c-0.6,0-1-0.2-1.2-0.6h0l0.1,1v1.9H1.4z"/>
		<path class="st7" d="M10.5,11.5c-1.9,0-2.7-0.6-2.7-1.5c0-0.7,0.4-1,1-1.2V8.6C8.4,8.5,8.2,8.2,8.2,7.8c0-0.6,0.4-0.9,1.1-1.1v0
			c-0.7-0.3-1.2-1-1.2-1.9c0-1.3,0.9-2.1,2.3-2.1c0.4,0,0.8,0.1,1.2,0.2V2.8c0-0.5,0.2-0.8,0.7-0.8h0.9v0.8h-1.2v0.4
			c0.4,0.4,0.7,0.9,0.7,1.6c0,1.3-0.9,2.1-2.3,2.1c-0.2,0-0.4,0-0.6-0.1C9.4,6.9,9,7.1,9,7.5C9,7.9,9.4,8,10,8h1.3
			c1.5,0,2.2,0.6,2.2,1.6C13.5,10.9,12.5,11.5,10.5,11.5z M11.3,8.9H9.2C8.8,9.1,8.7,9.4,8.7,9.7c0,0.5,0.4,1,1.3,1h0.9
			c1.1,0,1.7-0.3,1.7-1C12.6,9.2,12.3,8.9,11.3,8.9z M11.8,4.9V4.6c0-0.8-0.5-1.2-1.3-1.2c-0.8,0-1.3,0.4-1.3,1.2v0.3
			c0,0.8,0.5,1.2,1.3,1.2C11.2,6.1,11.8,5.7,11.8,4.9z"/>
		<path class="st7" d="M13.9,10.8l3.1-10.7h0.9l-3.1,10.7H13.9z"/>
		<path class="st7" d="M19.4,9V2.8h1v1h0c0.3-0.6,0.7-1.2,1.7-1.2c0.8,0,1.6,0.4,1.9,1.3h0c0.2-0.7,0.8-1.3,1.9-1.3
			c1.3,0,2,0.9,2,2.4v4h-1V5.2c0-1.1-0.4-1.7-1.4-1.7c-0.8,0-1.5,0.4-1.5,1.2V9h-1V5.2c0-1.1-0.4-1.7-1.3-1.7
			c-0.8,0-1.5,0.4-1.5,1.2V9H19.4z"/>
		<path class="st7" d="M30.7,2.2c0.7,0,1-0.3,1-0.8v0c0-0.5-0.4-0.8-0.9-0.8c-0.5,0-0.8,0.2-1,0.6l-0.4-0.3C29.6,0.4,30.1,0,30.8,0
			c0.8,0,1.5,0.4,1.5,1.2c0,0.6-0.4,1-0.9,1.1v0c0.5,0.1,1,0.5,1,1.2c0,0.8-0.7,1.4-1.7,1.4c-0.8,0-1.3-0.4-1.6-0.8l0.4-0.3
			c0.3,0.4,0.5,0.6,1.1,0.6c0.7,0,1-0.3,1-0.9V3.6c0-0.6-0.4-0.9-1-0.9h-0.6V2.2H30.7z"/>
	</g>
	<g>
		<path class="st7" d="M28.3,33.1c1.1,0,1.7-0.6,1.7-1.4v-0.1c0-0.9-0.6-1.3-1.5-1.3c-0.9,0-1.4,0.4-1.7,1L26,30.8
			c0.4-0.7,1.2-1.4,2.5-1.4c1.4,0,2.5,0.8,2.5,2.1c0,1.1-0.7,1.7-1.6,2v0c0.9,0.2,1.8,0.9,1.8,2.1c0,1.4-1.1,2.4-2.8,2.4
			c-1.5,0-2.2-0.7-2.7-1.4l0.8-0.6c0.4,0.7,0.9,1.1,1.9,1.1c1.2,0,1.8-0.6,1.8-1.5v-0.1c0-1-0.6-1.5-1.8-1.5h-1v-0.9H28.3z"/>
		<path class="st7" d="M38.3,30.5h-3.7l-0.2,3.2h0.1c0.4-0.6,0.8-0.9,1.7-0.9c1.4,0,2.5,1,2.5,2.6c0,1.6-1.1,2.8-2.8,2.8
			c-1.4,0-2.1-0.7-2.6-1.4l0.8-0.6c0.4,0.7,0.9,1.1,1.9,1.1c1.1,0,1.8-0.6,1.8-1.7v-0.1c0-1.1-0.6-1.7-1.8-1.7
			c-0.8,0-1.2,0.3-1.5,0.7l-0.9-0.1l0.3-4.6h4.5V30.5z"/>
	</g>
	<g>
		<path class="st7" d="M49.1,30.5h-3.7l-0.2,3.2h0.1c0.4-0.6,0.8-0.9,1.7-0.9c1.4,0,2.5,1,2.5,2.6c0,1.6-1.1,2.8-2.8,2.8
			c-1.4,0-2.1-0.7-2.6-1.4l0.8-0.6c0.4,0.7,0.9,1.1,1.9,1.1c1.1,0,1.8-0.6,1.8-1.7v-0.1c0-1.1-0.6-1.7-1.8-1.7
			c-0.8,0-1.2,0.3-1.5,0.7l-0.9-0.1l0.3-4.6h4.5V30.5z"/>
		<path class="st7" d="M56.3,30.5h-3.7l-0.2,3.2h0.1c0.4-0.6,0.8-0.9,1.7-0.9c1.4,0,2.5,1,2.5,2.6c0,1.6-1.1,2.8-2.8,2.8
			c-1.4,0-2.1-0.7-2.6-1.4l0.8-0.6c0.4,0.7,0.9,1.1,1.9,1.1c1.1,0,1.8-0.6,1.8-1.7v-0.1c0-1.1-0.6-1.7-1.8-1.7
			c-0.8,0-1.2,0.3-1.5,0.7l-0.9-0.1l0.3-4.6h4.5V30.5z"/>
	</g>
	<g>
		<path class="st7" d="M126.6,38v-0.9h2.3v-6.7h-0.1l-2.1,2l-0.6-0.6l2.2-2.1h1.6v7.5h2.2V38H126.6z"/>
		<path class="st7" d="M138.7,30.5h-3.7l-0.2,3.2h0.1c0.4-0.6,0.8-0.9,1.7-0.9c1.4,0,2.5,1,2.5,2.6c0,1.6-1.1,2.8-2.8,2.8
			c-1.4,0-2.1-0.7-2.6-1.4l0.8-0.6c0.4,0.7,0.9,1.1,1.9,1.1c1.1,0,1.8-0.6,1.8-1.7v-0.1c0-1.1-0.6-1.7-1.8-1.7
			c-0.8,0-1.2,0.3-1.5,0.7l-0.9-0.1l0.3-4.6h4.5V30.5z"/>
		<path class="st7" d="M140.7,33.8c0-2.7,0.9-4.3,2.9-4.3s2.9,1.6,2.9,4.3s-0.9,4.3-2.9,4.3S140.7,36.5,140.7,33.8z M145.4,34.5
			v-1.4c0-1.6-0.5-2.8-1.8-2.8c-1.3,0-1.8,1.2-1.8,2.8v1.4c0,1.6,0.5,2.8,1.8,2.8C144.9,37.2,145.4,36.1,145.4,34.5z"/>
	</g>
	<g>
		<path class="st7" d="M223,38h-5.5v-1l2.7-2.5c0.8-0.7,1.4-1.6,1.4-2.4v-0.1c0-0.9-0.5-1.6-1.5-1.6c-1,0-1.5,0.6-1.7,1.4l-0.9-0.3
			c0.3-1,1.1-2,2.7-2c1.6,0,2.6,1,2.6,2.4c0,1.3-0.8,2.2-1.8,3.2l-2.3,2h4.4V38z"/>
		<path class="st7" d="M229.7,30.5h-3.7l-0.2,3.2h0.1c0.4-0.6,0.8-0.9,1.7-0.9c1.4,0,2.5,1,2.5,2.6c0,1.6-1.1,2.8-2.8,2.8
			c-1.4,0-2.1-0.7-2.6-1.4l0.8-0.6c0.4,0.7,0.9,1.1,1.9,1.1c1.1,0,1.8-0.6,1.8-1.7v-0.1c0-1.1-0.6-1.7-1.8-1.7
			c-0.8,0-1.2,0.3-1.5,0.7l-0.9-0.1l0.3-4.6h4.5V30.5z"/>
		<path class="st7" d="M231.7,33.8c0-2.7,0.9-4.3,2.9-4.3s2.9,1.6,2.9,4.3s-0.9,4.3-2.9,4.3S231.7,36.5,231.7,33.8z M236.4,34.5
			v-1.4c0-1.6-0.5-2.8-1.8-2.8c-1.3,0-1.8,1.2-1.8,2.8v1.4c0,1.6,0.5,2.8,1.8,2.8C235.9,37.2,236.4,36.1,236.4,34.5z"/>
	</g>
	<g>
		<path class="st7" d="M355.5,30.5h-3.7l-0.2,3.2h0.1c0.4-0.6,0.8-0.9,1.7-0.9c1.4,0,2.5,1,2.5,2.6c0,1.6-1.1,2.8-2.8,2.8
			c-1.4,0-2.1-0.7-2.6-1.4l0.8-0.6c0.4,0.7,0.9,1.1,1.9,1.1c1.1,0,1.8-0.6,1.8-1.7v-0.1c0-1.1-0.6-1.7-1.8-1.7
			c-0.8,0-1.2,0.3-1.5,0.7l-0.9-0.1l0.3-4.6h4.5V30.5z"/>
		<path class="st7" d="M357.5,33.8c0-2.7,0.9-4.3,2.9-4.3s2.9,1.6,2.9,4.3s-0.9,4.3-2.9,4.3S357.5,36.5,357.5,33.8z M362.2,34.5
			v-1.4c0-1.6-0.5-2.8-1.8-2.8c-1.3,0-1.8,1.2-1.8,2.8v1.4c0,1.6,0.5,2.8,1.8,2.8C361.7,37.2,362.2,36.1,362.2,34.5z"/>
		<path class="st7" d="M364.7,33.8c0-2.7,0.9-4.3,2.9-4.3s2.9,1.6,2.9,4.3s-0.9,4.3-2.9,4.3S364.7,36.5,364.7,33.8z M369.4,34.5
			v-1.4c0-1.6-0.5-2.8-1.8-2.8c-1.3,0-1.8,1.2-1.8,2.8v1.4c0,1.6,0.5,2.8,1.8,2.8C368.9,37.2,369.4,36.1,369.4,34.5z"/>
	</g>
</g>
</svg>
