<?xml version="1.0" encoding="utf-8"?>
<!-- Generator: Adobe Illustrator 23.0.3, SVG Export Plug-In . SVG Version: 6.00 Build 0)  -->
<svg version="1.1" id="Layer_1" xmlns="http://www.w3.org/2000/svg" xmlns:xlink="http://www.w3.org/1999/xlink" x="0px" y="0px"
	 viewBox="0 0 382 32.1" style="enable-background:new 0 0 382 32.1;" xml:space="preserve">
<style type="text/css">
	.st0{fill:#D4E8C1;}
	.st1{fill:#F3C654;}
	.st2{fill:#F28124;}
	.st3{fill:#C94227;}
	.st4{fill:#A42614;}
	.st5{fill:#800000;}
	.st6{fill:#440012;}
	.st7{fill:#414141;}
</style>
<g>
	<rect x="10" y="-787.3" class="st0" width="16.3" height="14"/>
</g>
<g>
	<rect x="26.3" y="-787.3" class="st1" width="31.9" height="14"/>
</g>
<g>
	<rect x="58.2" y="-787.3" class="st2" width="27.2" height="14"/>
</g>
<g>
	<rect x="85.4" y="-787.3" class="st3" width="129.1" height="14"/>
</g>
<g>
	<rect x="214.5" y="-787.3" class="st4" width="135.9" height="14"/>
</g>
<g>
	<rect x="350.3" y="-787.3" class="st5" width="339.7" height="14"/>
</g>
<g>
	<polygon class="st6" points="762.3,-773.3 689.7,-773.3 689.7,-787.3 762.3,-787.3 772.3,-780.3 	"/>
</g>
<g>
	<rect x="0" y="-0.3" class="st0" width="54.6" height="11"/>
	<rect x="54.6" y="-0.3" class="st1" width="54.6" height="11"/>
	<rect x="109.1" y="-0.3" class="st2" width="54.6" height="11"/>
	<rect x="163.7" y="-0.3" class="st3" width="54.6" height="11"/>
	<rect x="218.3" y="-0.3" class="st4" width="54.6" height="11"/>
	<rect x="272.9" y="-0.3" class="st5" width="54.6" height="11"/>
	<rect x="327.4" y="-0.3" class="st6" width="54.6" height="11"/>
	<g>
		<path class="st7" d="M22.1,20L22.1,20c-0.2,0.5-0.7,0.9-1.6,0.9c-1.4,0-2.3-1-2.3-2.9c0-1.9,0.9-2.9,2.4-2.9c1,0,1.7,0.5,2,1.2
			L22,16.7c-0.3-0.6-0.8-1-1.5-1c-1,0-1.7,0.7-1.7,1.8v0.9c0,1.1,0.7,1.8,1.7,1.8c0.8,0,1.4-0.4,1.4-1.2v-0.6h-1.2v-0.6h1.9v2.9
			h-0.6V20z"/>
		<path class="st7" d="M23.6,18.7c0-1.3,0.8-2.2,1.9-2.2s1.9,0.8,1.9,2.2c0,1.3-0.8,2.2-1.9,2.2S23.6,20,23.6,18.7z M26.7,19v-0.6
			c0-0.9-0.5-1.3-1.2-1.3s-1.2,0.4-1.2,1.3V19c0,0.9,0.5,1.3,1.2,1.3S26.7,19.9,26.7,19z"/>
		<path class="st7" d="M28.1,18.7c0-1.3,0.8-2.2,1.9-2.2s1.9,0.8,1.9,2.2c0,1.3-0.8,2.2-1.9,2.2S28.1,20,28.1,18.7z M31.2,19v-0.6
			c0-0.9-0.5-1.3-1.2-1.3s-1.2,0.4-1.2,1.3V19c0,0.9,0.5,1.3,1.2,1.3S31.2,19.9,31.2,19z"/>
		<path class="st7" d="M35.5,20.1L35.5,20.1c-0.3,0.5-0.7,0.8-1.2,0.8c-1,0-1.7-0.8-1.7-2.2s0.6-2.2,1.7-2.2c0.6,0,1,0.2,1.2,0.8h0
			v-2.5h0.6v5.9h-0.6V20.1z M35.5,19.5v-1.5c0-0.5-0.5-0.8-1.1-0.8c-0.7,0-1.2,0.5-1.2,1.2v0.7c0,0.7,0.4,1.2,1.2,1.2
			C35.1,20.3,35.5,20,35.5,19.5z"/>
	</g>
	<g>
		<path class="st7" d="M65.4,15.2h0.9l1.6,3h0l1.6-3h0.9v5.6h-0.7v-4.7h0L69.3,17l-1.3,2.4L66.6,17l-0.5-0.9h0v4.7h-0.7V15.2z"/>
		<path class="st7" d="M71.6,18.7c0-1.3,0.8-2.2,1.9-2.2s1.9,0.8,1.9,2.2c0,1.3-0.8,2.2-1.9,2.2S71.6,20,71.6,18.7z M74.6,19v-0.6
			c0-0.9-0.5-1.3-1.2-1.3s-1.2,0.4-1.2,1.3V19c0,0.9,0.5,1.3,1.2,1.3S74.6,19.9,74.6,19z"/>
		<path class="st7" d="M79,20.1L79,20.1c-0.3,0.5-0.7,0.8-1.2,0.8c-1,0-1.7-0.8-1.7-2.2s0.6-2.2,1.7-2.2c0.6,0,1,0.2,1.2,0.8h0v-2.5
			h0.6v5.9H79V20.1z M79,19.5v-1.5c0-0.5-0.5-0.8-1.1-0.8c-0.7,0-1.2,0.5-1.2,1.2v0.7c0,0.7,0.4,1.2,1.2,1.2
			C78.5,20.3,79,20,79,19.5z"/>
		<path class="st7" d="M80.7,18.7c0-1.3,0.7-2.2,1.9-2.2c1.1,0,1.8,0.8,1.8,2v0.3h-3v0.2c0,0.7,0.5,1.2,1.2,1.2
			c0.5,0,0.9-0.3,1.1-0.7l0.5,0.3c-0.3,0.6-0.9,0.9-1.6,0.9C81.4,20.9,80.7,20,80.7,18.7z M81.3,18.3L81.3,18.3l2.3,0.1v-0.1
			c0-0.7-0.4-1.2-1.1-1.2C81.8,17.1,81.3,17.6,81.3,18.3z"/>
		<path class="st7" d="M85.4,20.8v-4.1H86v0.8h0c0.1-0.4,0.5-0.8,1.2-0.8h0.2v0.6h-0.4c-0.7,0-1.1,0.3-1.1,0.7v2.8H85.4z"/>
		<path class="st7" d="M91.3,20.8c-0.5,0-0.7-0.3-0.7-0.7h0c-0.2,0.5-0.6,0.8-1.2,0.8c-0.9,0-1.4-0.5-1.4-1.2c0-0.8,0.6-1.2,1.8-1.2
			h0.8V18c0-0.6-0.3-0.9-1-0.9c-0.5,0-0.8,0.2-1,0.6l-0.4-0.4c0.2-0.4,0.7-0.8,1.5-0.8c1,0,1.6,0.5,1.6,1.4v2.3h0.5v0.6H91.3z
			 M90.5,19.6v-0.7h-0.8c-0.7,0-1.1,0.2-1.1,0.6v0.2c0,0.4,0.3,0.6,0.8,0.6C90.1,20.3,90.5,20,90.5,19.6z"/>
		<path class="st7" d="M93.5,20.8c-0.4,0-0.7-0.3-0.7-0.7v-2.9h-0.7v-0.6h0.4c0.3,0,0.4-0.1,0.4-0.4v-0.8h0.6v1.1h0.9v0.6h-0.9v3
			h0.8v0.6H93.5z"/>
		<path class="st7" d="M95,18.7c0-1.3,0.7-2.2,1.9-2.2c1.1,0,1.8,0.8,1.8,2v0.3h-3v0.2c0,0.7,0.5,1.2,1.2,1.2c0.5,0,0.9-0.3,1.1-0.7
			l0.5,0.3c-0.3,0.6-0.9,0.9-1.6,0.9C95.8,20.9,95,20,95,18.7z M95.7,18.3L95.7,18.3l2.3,0.1v-0.1c0-0.7-0.4-1.2-1.1-1.2
			C96.2,17.1,95.7,17.6,95.7,18.3z"/>
	</g>
	<g>
		<path class="st7" d="M113.1,15.2v3.5c0,1.1,0.3,1.6,1.3,1.6c1,0,1.3-0.6,1.3-1.6v-3.5h0.7v3.3c0,1.6-0.5,2.4-2,2.4s-2-0.8-2-2.4
			v-3.3H113.1z"/>
		<path class="st7" d="M117.8,20.8v-4.1h0.6v0.7h0c0.2-0.5,0.6-0.8,1.2-0.8c0.8,0,1.4,0.6,1.4,1.6v2.6h-0.6v-2.5
			c0-0.7-0.3-1.1-0.9-1.1c-0.5,0-1,0.3-1,0.8v2.9H117.8z"/>
		<path class="st7" d="M122.3,14.9h0.6v2.5h0c0.2-0.5,0.6-0.8,1.2-0.8c0.8,0,1.4,0.6,1.4,1.6v2.6h-0.6v-2.5c0-0.7-0.3-1.1-0.9-1.1
			c-0.5,0-1,0.3-1,0.8v2.9h-0.6V14.9z"/>
		<path class="st7" d="M126.6,18.7c0-1.3,0.7-2.2,1.9-2.2c1.1,0,1.8,0.8,1.8,2v0.3h-3v0.2c0,0.7,0.5,1.2,1.2,1.2
			c0.5,0,0.9-0.3,1.1-0.7l0.5,0.3c-0.3,0.6-0.9,0.9-1.6,0.9C127.3,20.9,126.6,20,126.6,18.7z M127.2,18.3L127.2,18.3l2.3,0.1v-0.1
			c0-0.7-0.4-1.2-1.1-1.2C127.7,17.1,127.2,17.6,127.2,18.3z"/>
		<path class="st7" d="M134.3,20.8c-0.5,0-0.7-0.3-0.7-0.7h0c-0.2,0.5-0.6,0.8-1.2,0.8c-0.9,0-1.4-0.5-1.4-1.2
			c0-0.8,0.6-1.2,1.8-1.2h0.8V18c0-0.6-0.3-0.9-1-0.9c-0.5,0-0.8,0.2-1,0.6l-0.4-0.4c0.2-0.4,0.7-0.8,1.5-0.8c1,0,1.6,0.5,1.6,1.4
			v2.3h0.5v0.6H134.3z M133.5,19.6v-0.7h-0.8c-0.7,0-1.1,0.2-1.1,0.6v0.2c0,0.4,0.3,0.6,0.8,0.6C133.1,20.3,133.5,20,133.5,19.6z"/>
		<path class="st7" d="M136.2,20.8c-0.4,0-0.7-0.3-0.7-0.7v-5.3h0.6v5.4h0.6v0.6H136.2z"/>
		<path class="st7" d="M138.6,20.8c-0.4,0-0.7-0.3-0.7-0.7v-2.9h-0.7v-0.6h0.4c0.3,0,0.4-0.1,0.4-0.4v-0.8h0.6v1.1h0.9v0.6h-0.9v3
			h0.8v0.6H138.6z"/>
		<path class="st7" d="M140.5,14.9h0.6v2.5h0c0.2-0.5,0.6-0.8,1.2-0.8c0.8,0,1.4,0.6,1.4,1.6v2.6h-0.6v-2.5c0-0.7-0.3-1.1-0.9-1.1
			c-0.5,0-1,0.3-1,0.8v2.9h-0.6V14.9z"/>
		<path class="st7" d="M147.5,16.7h0.6l-1.8,5.1c-0.2,0.5-0.4,0.6-1,0.6H145v-0.6h0.6l0.3-0.9l-1.5-4.3h0.6l1,2.8l0.2,0.7h0l0.2-0.7
			L147.5,16.7z"/>
		<path class="st7" d="M151.1,17.2h-0.7v-0.6h0.7v-0.8c0-0.6,0.3-1,0.9-1h0.6v0.6h-0.9v1.2h0.9v0.6h-0.9v3.6h-0.6V17.2z"/>
		<path class="st7" d="M153.1,18.7c0-1.3,0.8-2.2,1.9-2.2s1.9,0.8,1.9,2.2c0,1.3-0.8,2.2-1.9,2.2S153.1,20,153.1,18.7z M156.1,19
			v-0.6c0-0.9-0.5-1.3-1.2-1.3s-1.2,0.4-1.2,1.3V19c0,0.9,0.5,1.3,1.2,1.3S156.1,19.9,156.1,19z"/>
		<path class="st7" d="M157.9,20.8v-4.1h0.6v0.8h0c0.1-0.4,0.5-0.8,1.2-0.8h0.2v0.6h-0.4c-0.7,0-1.1,0.3-1.1,0.7v2.8H157.9z"/>
		<path class="st7" d="M109.9,29.7l0.5-0.4c0.3,0.4,0.7,0.6,1.2,0.6c0.5,0,0.9-0.2,0.9-0.7c0-0.3-0.2-0.6-0.7-0.6l-0.3,0
			c-0.8-0.1-1.3-0.4-1.3-1.2c0-0.8,0.6-1.2,1.5-1.2c0.7,0,1.1,0.2,1.4,0.7l-0.4,0.4c-0.2-0.3-0.5-0.5-1.1-0.5s-0.8,0.2-0.8,0.6
			c0,0.4,0.3,0.6,0.8,0.6l0.3,0c0.9,0.1,1.3,0.5,1.3,1.2c0,0.8-0.6,1.3-1.5,1.3C110.8,30.5,110.3,30.2,109.9,29.7z"/>
		<path class="st7" d="M113.9,28.3c0-1.3,0.7-2.2,1.9-2.2c1.1,0,1.8,0.8,1.8,2v0.3h-3v0.2c0,0.7,0.5,1.2,1.2,1.2
			c0.5,0,0.9-0.3,1.1-0.7l0.5,0.3c-0.3,0.6-0.9,0.9-1.6,0.9C114.6,30.5,113.9,29.6,113.9,28.3z M114.6,27.9L114.6,27.9l2.3,0.1v-0.1
			c0-0.7-0.4-1.2-1.1-1.2C115.1,26.7,114.6,27.2,114.6,27.9z"/>
		<path class="st7" d="M118.6,30.4v-4.1h0.6v0.7h0c0.2-0.5,0.6-0.8,1.2-0.8c0.8,0,1.4,0.6,1.4,1.6v2.6h-0.6v-2.5
			c0-0.7-0.3-1.1-0.9-1.1c-0.5,0-1,0.3-1,0.8v2.9H118.6z"/>
		<path class="st7" d="M122.7,29.7l0.5-0.4c0.3,0.4,0.7,0.6,1.2,0.6c0.5,0,0.9-0.2,0.9-0.7c0-0.3-0.2-0.6-0.7-0.6l-0.3,0
			c-0.8-0.1-1.3-0.4-1.3-1.2c0-0.8,0.6-1.2,1.5-1.2c0.7,0,1.1,0.2,1.4,0.7l-0.4,0.4c-0.2-0.3-0.5-0.5-1.1-0.5s-0.8,0.2-0.8,0.6
			c0,0.4,0.3,0.6,0.8,0.6l0.3,0c0.9,0.1,1.3,0.5,1.3,1.2c0,0.8-0.6,1.3-1.5,1.3C123.6,30.5,123.1,30.2,122.7,29.7z"/>
		<path class="st7" d="M127,24.9v-0.1c0-0.2,0.1-0.4,0.4-0.4s0.4,0.1,0.4,0.4v0.1c0,0.2-0.1,0.4-0.4,0.4S127,25.1,127,24.9z
			 M127,26.3h0.6v4.1H127V26.3z"/>
		<path class="st7" d="M129.9,30.4c-0.4,0-0.7-0.3-0.7-0.7v-2.9h-0.7v-0.6h0.4c0.3,0,0.4-0.1,0.4-0.4v-0.8h0.6v1.1h0.9v0.6h-0.9v3
			h0.8v0.6H129.9z"/>
		<path class="st7" d="M131.8,24.9v-0.1c0-0.2,0.1-0.4,0.4-0.4s0.4,0.1,0.4,0.4v0.1c0,0.2-0.1,0.4-0.4,0.4S131.8,25.1,131.8,24.9z
			 M131.8,26.3h0.6v4.1h-0.6V26.3z"/>
		<path class="st7" d="M134.7,30.4l-1.4-4.1h0.6l0.7,2l0.4,1.4h0l0.4-1.4l0.7-2h0.6l-1.5,4.1H134.7z"/>
		<path class="st7" d="M137.4,28.3c0-1.3,0.7-2.2,1.9-2.2c1.1,0,1.8,0.8,1.8,2v0.3h-3v0.2c0,0.7,0.5,1.2,1.2,1.2
			c0.5,0,0.9-0.3,1.1-0.7l0.5,0.3c-0.3,0.6-0.9,0.9-1.6,0.9C138.1,30.5,137.4,29.6,137.4,28.3z M138.1,27.9L138.1,27.9l2.3,0.1v-0.1
			c0-0.7-0.4-1.2-1.1-1.2C138.6,26.7,138.1,27.2,138.1,27.9z"/>
		<path class="st7" d="M145.5,32.1c-1.3,0-1.8-0.4-1.8-1c0-0.4,0.2-0.7,0.7-0.8v-0.1c-0.2-0.1-0.4-0.3-0.4-0.6
			c0-0.4,0.3-0.6,0.7-0.7v0c-0.5-0.2-0.8-0.7-0.8-1.3c0-0.8,0.6-1.4,1.6-1.4c0.3,0,0.6,0.1,0.8,0.2v-0.1c0-0.3,0.1-0.6,0.5-0.6h0.6
			v0.6h-0.8v0.3c0.3,0.3,0.5,0.6,0.5,1.1c0,0.8-0.6,1.4-1.6,1.4c-0.1,0-0.3,0-0.4,0c-0.3,0.1-0.5,0.2-0.5,0.5c0,0.2,0.3,0.3,0.6,0.3
			h0.9c1,0,1.5,0.4,1.5,1.1C147.5,31.7,146.8,32.1,145.5,32.1z M146,30.3h-1.4c-0.3,0.1-0.4,0.3-0.4,0.6c0,0.4,0.2,0.7,0.9,0.7h0.6
			c0.7,0,1.1-0.2,1.1-0.7C146.9,30.6,146.7,30.3,146,30.3z M146.3,27.7v-0.2c0-0.5-0.3-0.8-0.9-0.8c-0.5,0-0.9,0.3-0.9,0.8v0.2
			c0,0.5,0.3,0.8,0.9,0.8C146,28.5,146.3,28.2,146.3,27.7z"/>
		<path class="st7" d="M148.2,30.4v-4.1h0.6V27h0c0.1-0.4,0.5-0.8,1.2-0.8h0.2v0.6H150c-0.7,0-1.1,0.3-1.1,0.7v2.8H148.2z"/>
		<path class="st7" d="M150.8,28.3c0-1.3,0.8-2.2,1.9-2.2s1.9,0.8,1.9,2.2c0,1.3-0.8,2.2-1.9,2.2S150.8,29.6,150.8,28.3z
			 M153.8,28.6V28c0-0.9-0.5-1.3-1.2-1.3s-1.2,0.4-1.2,1.3v0.6c0,0.9,0.5,1.3,1.2,1.3S153.8,29.5,153.8,28.6z"/>
		<path class="st7" d="M158.1,29.7L158.1,29.7c-0.2,0.4-0.5,0.8-1.2,0.8c-0.8,0-1.4-0.6-1.4-1.6v-2.6h0.6v2.5c0,0.7,0.3,1.1,0.9,1.1
			c0.5,0,1-0.2,1-0.8v-2.9h0.6v4.1h-0.6V29.7z"/>
		<path class="st7" d="M160.1,26.3h0.6v0.7h0c0.2-0.5,0.6-0.8,1.2-0.8c1,0,1.7,0.8,1.7,2.2s-0.6,2.2-1.7,2.2c-0.6,0-1-0.3-1.2-0.8h0
			V32h-0.6V26.3z M163,28.7V28c0-0.7-0.4-1.2-1.2-1.2c-0.6,0-1.1,0.3-1.1,0.8v1.5c0,0.5,0.5,0.8,1.1,0.8
			C162.6,29.9,163,29.4,163,28.7z"/>
	</g>
	<g>
		<path class="st7" d="M174.1,15.2v3.5c0,1.1,0.3,1.6,1.3,1.6c1,0,1.3-0.6,1.3-1.6v-3.5h0.7v3.3c0,1.6-0.5,2.4-2,2.4s-2-0.8-2-2.4
			v-3.3H174.1z"/>
		<path class="st7" d="M178.8,20.8v-4.1h0.6v0.7h0c0.2-0.5,0.6-0.8,1.2-0.8c0.8,0,1.4,0.6,1.4,1.6v2.6h-0.6v-2.5
			c0-0.7-0.3-1.1-0.9-1.1c-0.5,0-1,0.3-1,0.8v2.9H178.8z"/>
		<path class="st7" d="M183.4,14.9h0.6v2.5h0c0.2-0.5,0.6-0.8,1.2-0.8c0.8,0,1.4,0.6,1.4,1.6v2.6h-0.6v-2.5c0-0.7-0.3-1.1-0.9-1.1
			c-0.5,0-1,0.3-1,0.8v2.9h-0.6V14.9z"/>
		<path class="st7" d="M187.6,18.7c0-1.3,0.7-2.2,1.9-2.2c1.1,0,1.8,0.8,1.8,2v0.3h-3v0.2c0,0.7,0.5,1.2,1.2,1.2
			c0.5,0,0.9-0.3,1.1-0.7l0.5,0.3c-0.3,0.6-0.9,0.9-1.6,0.9C188.3,20.9,187.6,20,187.6,18.7z M188.3,18.3L188.3,18.3l2.3,0.1v-0.1
			c0-0.7-0.4-1.2-1.1-1.2C188.8,17.1,188.3,17.6,188.3,18.3z"/>
		<path class="st7" d="M195.3,20.8c-0.5,0-0.7-0.3-0.7-0.7h0c-0.2,0.5-0.6,0.8-1.2,0.8c-0.9,0-1.4-0.5-1.4-1.2
			c0-0.8,0.6-1.2,1.8-1.2h0.8V18c0-0.6-0.3-0.9-1-0.9c-0.5,0-0.8,0.2-1,0.6l-0.4-0.4c0.2-0.4,0.7-0.8,1.5-0.8c1,0,1.6,0.5,1.6,1.4
			v2.3h0.5v0.6H195.3z M194.5,19.6v-0.7h-0.8c-0.7,0-1.1,0.2-1.1,0.6v0.2c0,0.4,0.3,0.6,0.8,0.6C194.1,20.3,194.5,20,194.5,19.6z"/>
		<path class="st7" d="M197.2,20.8c-0.4,0-0.7-0.3-0.7-0.7v-5.3h0.6v5.4h0.6v0.6H197.2z"/>
		<path class="st7" d="M199.6,20.8c-0.4,0-0.7-0.3-0.7-0.7v-2.9h-0.7v-0.6h0.4c0.3,0,0.4-0.1,0.4-0.4v-0.8h0.6v1.1h0.9v0.6h-0.9v3
			h0.8v0.6H199.6z"/>
		<path class="st7" d="M201.5,14.9h0.6v2.5h0c0.2-0.5,0.6-0.8,1.2-0.8c0.8,0,1.4,0.6,1.4,1.6v2.6h-0.6v-2.5c0-0.7-0.3-1.1-0.9-1.1
			c-0.5,0-1,0.3-1,0.8v2.9h-0.6V14.9z"/>
		<path class="st7" d="M208.5,16.7h0.6l-1.8,5.1c-0.2,0.5-0.4,0.6-1,0.6H206v-0.6h0.6l0.3-0.9l-1.5-4.3h0.6l1,2.8l0.2,0.7h0l0.2-0.7
			L208.5,16.7z"/>
	</g>
	<g>
		<path class="st7" d="M221.2,20.8l-1.9-5.6h0.7L221,18l0.6,2.1h0l0.6-2.1l0.9-2.8h0.7l-1.9,5.6H221.2z"/>
		<path class="st7" d="M224.2,18.7c0-1.3,0.7-2.2,1.9-2.2c1.1,0,1.8,0.8,1.8,2v0.3h-3v0.2c0,0.7,0.5,1.2,1.2,1.2
			c0.5,0,0.9-0.3,1.1-0.7l0.5,0.3c-0.3,0.6-0.9,0.9-1.6,0.9C224.9,20.9,224.2,20,224.2,18.7z M224.9,18.3L224.9,18.3l2.3,0.1v-0.1
			c0-0.7-0.4-1.2-1.1-1.2C225.4,17.1,224.9,17.6,224.9,18.3z"/>
		<path class="st7" d="M228.9,20.8v-4.1h0.6v0.8h0c0.1-0.4,0.5-0.8,1.2-0.8h0.2v0.6h-0.4c-0.7,0-1.1,0.3-1.1,0.7v2.8H228.9z"/>
		<path class="st7" d="M234.4,16.7h0.6l-1.8,5.1c-0.2,0.5-0.4,0.6-1,0.6h-0.3v-0.6h0.6l0.3-0.9l-1.5-4.3h0.6l1,2.8l0.2,0.7h0
			l0.2-0.7L234.4,16.7z"/>
		<path class="st7" d="M240.3,20.1L240.3,20.1c-0.2,0.4-0.5,0.8-1.2,0.8c-0.8,0-1.4-0.6-1.4-1.6v-2.6h0.6v2.5c0,0.7,0.3,1.1,0.9,1.1
			c0.5,0,1-0.2,1-0.8v-2.9h0.6v4.1h-0.6V20.1z"/>
		<path class="st7" d="M242.3,20.8v-4.1h0.6v0.7h0c0.2-0.5,0.6-0.8,1.2-0.8c0.8,0,1.4,0.6,1.4,1.6v2.6h-0.6v-2.5
			c0-0.7-0.3-1.1-0.9-1.1c-0.5,0-1,0.3-1,0.8v2.9H242.3z"/>
		<path class="st7" d="M246.9,14.9h0.6v2.5h0c0.2-0.5,0.6-0.8,1.2-0.8c0.8,0,1.4,0.6,1.4,1.6v2.6h-0.6v-2.5c0-0.7-0.3-1.1-0.9-1.1
			c-0.5,0-1,0.3-1,0.8v2.9h-0.6V14.9z"/>
		<path class="st7" d="M251.1,18.7c0-1.3,0.7-2.2,1.9-2.2c1.1,0,1.8,0.8,1.8,2v0.3h-3v0.2c0,0.7,0.5,1.2,1.2,1.2
			c0.5,0,0.9-0.3,1.1-0.7l0.5,0.3c-0.3,0.6-0.9,0.9-1.6,0.9C251.8,20.9,251.1,20,251.1,18.7z M251.8,18.3L251.8,18.3l2.3,0.1v-0.1
			c0-0.7-0.4-1.2-1.1-1.2C252.3,17.1,251.8,17.6,251.8,18.3z"/>
		<path class="st7" d="M258.8,20.8c-0.5,0-0.7-0.3-0.7-0.7h0c-0.2,0.5-0.6,0.8-1.2,0.8c-0.9,0-1.4-0.5-1.4-1.2
			c0-0.8,0.6-1.2,1.8-1.2h0.8V18c0-0.6-0.3-0.9-1-0.9c-0.5,0-0.8,0.2-1,0.6l-0.4-0.4c0.2-0.4,0.7-0.8,1.5-0.8c1,0,1.6,0.5,1.6,1.4
			v2.3h0.5v0.6H258.8z M258.1,19.6v-0.7h-0.8c-0.7,0-1.1,0.2-1.1,0.6v0.2c0,0.4,0.3,0.6,0.8,0.6C257.6,20.3,258.1,20,258.1,19.6z"/>
		<path class="st7" d="M260.8,20.8c-0.4,0-0.7-0.3-0.7-0.7v-5.3h0.6v5.4h0.6v0.6H260.8z"/>
		<path class="st7" d="M263.1,20.8c-0.4,0-0.7-0.3-0.7-0.7v-2.9h-0.7v-0.6h0.4c0.3,0,0.4-0.1,0.4-0.4v-0.8h0.6v1.1h0.9v0.6h-0.9v3
			h0.8v0.6H263.1z"/>
		<path class="st7" d="M265,14.9h0.6v2.5h0c0.2-0.5,0.6-0.8,1.2-0.8c0.8,0,1.4,0.6,1.4,1.6v2.6h-0.6v-2.5c0-0.7-0.3-1.1-0.9-1.1
			c-0.5,0-1,0.3-1,0.8v2.9H265V14.9z"/>
		<path class="st7" d="M272,16.7h0.6l-1.8,5.1c-0.2,0.5-0.4,0.6-1,0.6h-0.3v-0.6h0.6l0.3-0.9l-1.5-4.3h0.6l1,2.8l0.2,0.7h0l0.2-0.7
			L272,16.7z"/>
	</g>
	<g>
		<path class="st7" d="M285.2,18.3h-2.8v2.5h-0.7v-5.6h0.7v2.5h2.8v-2.5h0.7v5.6h-0.7V18.3z"/>
		<path class="st7" d="M290.3,20.8c-0.5,0-0.7-0.3-0.7-0.7h0c-0.2,0.5-0.6,0.8-1.2,0.8c-0.9,0-1.4-0.5-1.4-1.2
			c0-0.8,0.6-1.2,1.8-1.2h0.8V18c0-0.6-0.3-0.9-1-0.9c-0.5,0-0.8,0.2-1,0.6l-0.4-0.4c0.2-0.4,0.7-0.8,1.5-0.8c1,0,1.6,0.5,1.6,1.4
			v2.3h0.5v0.6H290.3z M289.5,19.6v-0.7h-0.8c-0.7,0-1.1,0.2-1.1,0.6v0.2c0,0.4,0.3,0.6,0.8,0.6C289.1,20.3,289.5,20,289.5,19.6z"/>
		<path class="st7" d="M291.2,20.8v-0.5l2.3-3h-2.3v-0.6h3v0.5l-2.4,3.1h2.5v0.6H291.2z"/>
		<path class="st7" d="M298.3,20.8c-0.5,0-0.7-0.3-0.7-0.7h0c-0.2,0.5-0.6,0.8-1.2,0.8c-0.9,0-1.4-0.5-1.4-1.2
			c0-0.8,0.6-1.2,1.8-1.2h0.8V18c0-0.6-0.3-0.9-1-0.9c-0.5,0-0.8,0.2-1,0.6l-0.4-0.4c0.2-0.4,0.7-0.8,1.5-0.8c1,0,1.6,0.5,1.6,1.4
			v2.3h0.5v0.6H298.3z M297.5,19.6v-0.7h-0.8c-0.7,0-1.1,0.2-1.1,0.6v0.2c0,0.4,0.3,0.6,0.8,0.6C297.1,20.3,297.5,20,297.5,19.6z"/>
		<path class="st7" d="M299.6,20.8v-4.1h0.6v0.8h0c0.1-0.4,0.5-0.8,1.2-0.8h0.2v0.6h-0.4c-0.7,0-1.1,0.3-1.1,0.7v2.8H299.6z"/>
		<path class="st7" d="M305.1,20.1L305.1,20.1c-0.3,0.5-0.7,0.8-1.2,0.8c-1,0-1.7-0.8-1.7-2.2s0.6-2.2,1.7-2.2c0.6,0,1,0.2,1.2,0.8
			h0v-2.5h0.6v5.9h-0.6V20.1z M305.1,19.5v-1.5c0-0.5-0.5-0.8-1.1-0.8c-0.7,0-1.2,0.5-1.2,1.2v0.7c0,0.7,0.4,1.2,1.2,1.2
			C304.6,20.3,305.1,20,305.1,19.5z"/>
		<path class="st7" d="M306.8,18.7c0-1.3,0.8-2.2,1.9-2.2s1.9,0.8,1.9,2.2c0,1.3-0.8,2.2-1.9,2.2S306.8,20,306.8,18.7z M309.8,19
			v-0.6c0-0.9-0.5-1.3-1.2-1.3s-1.2,0.4-1.2,1.3V19c0,0.9,0.5,1.3,1.2,1.3S309.8,19.9,309.8,19z"/>
		<path class="st7" d="M314.1,20.1L314.1,20.1c-0.2,0.4-0.5,0.8-1.2,0.8c-0.8,0-1.4-0.6-1.4-1.6v-2.6h0.6v2.5c0,0.7,0.3,1.1,0.9,1.1
			c0.5,0,1-0.2,1-0.8v-2.9h0.6v4.1h-0.6V20.1z"/>
		<path class="st7" d="M315.7,20.1l0.5-0.4c0.3,0.4,0.7,0.6,1.2,0.6c0.5,0,0.9-0.2,0.9-0.7c0-0.3-0.2-0.6-0.7-0.6l-0.3,0
			c-0.8-0.1-1.3-0.4-1.3-1.2c0-0.8,0.6-1.2,1.5-1.2c0.7,0,1.1,0.2,1.4,0.7l-0.4,0.4c-0.2-0.3-0.5-0.5-1.1-0.5s-0.8,0.2-0.8,0.6
			c0,0.4,0.3,0.6,0.8,0.6l0.3,0c0.9,0.1,1.3,0.5,1.3,1.2c0,0.8-0.6,1.3-1.5,1.3C316.6,20.9,316.1,20.6,315.7,20.1z"/>
	</g>
	<g>
		<path class="st7" d="M340.4,20.8v-5.6h3.4v0.6H341v1.9h2.6v0.6H341v1.9h2.7v0.6H340.4z"/>
		<path class="st7" d="M346,18.7l-1.5-2h0.8l1,1.5h0l1.1-1.5h0.7l-1.5,2l1.5,2.1h-0.8l-1.1-1.6h0l-1.2,1.6h-0.7L346,18.7z"/>
		<path class="st7" d="M349.9,20.8c-0.4,0-0.7-0.3-0.7-0.7v-2.9h-0.7v-0.6h0.4c0.3,0,0.4-0.1,0.4-0.4v-0.8h0.6v1.1h0.9v0.6h-0.9v3
			h0.8v0.6H349.9z"/>
		<path class="st7" d="M351.8,20.8v-4.1h0.6v0.8h0c0.1-0.4,0.5-0.8,1.2-0.8h0.2v0.6h-0.4c-0.7,0-1.1,0.3-1.1,0.7v2.8H351.8z"/>
		<path class="st7" d="M354.4,18.7c0-1.3,0.7-2.2,1.9-2.2c1.1,0,1.8,0.8,1.8,2v0.3h-3v0.2c0,0.7,0.5,1.2,1.2,1.2
			c0.5,0,0.9-0.3,1.1-0.7l0.5,0.3c-0.3,0.6-0.9,0.9-1.6,0.9C355.2,20.9,354.4,20,354.4,18.7z M355.1,18.3L355.1,18.3l2.3,0.1v-0.1
			c0-0.7-0.4-1.2-1.1-1.2C355.6,17.1,355.1,17.6,355.1,18.3z"/>
		<path class="st7" d="M359.1,20.8v-4.1h0.6v0.7h0c0.2-0.4,0.5-0.8,1.1-0.8c0.5,0,1,0.2,1.3,0.8h0c0.2-0.4,0.6-0.8,1.3-0.8
			c0.8,0,1.3,0.6,1.3,1.6v2.6h-0.6v-2.5c0-0.7-0.3-1.1-0.9-1.1c-0.5,0-1,0.3-1,0.8v2.9h-0.6v-2.5c0-0.7-0.3-1.1-0.9-1.1
			c-0.5,0-1,0.3-1,0.8v2.9H359.1z"/>
		<path class="st7" d="M365.8,18.7c0-1.3,0.7-2.2,1.9-2.2c1.1,0,1.8,0.8,1.8,2v0.3h-3v0.2c0,0.7,0.5,1.2,1.2,1.2
			c0.5,0,0.9-0.3,1.1-0.7l0.5,0.3c-0.3,0.6-0.9,0.9-1.6,0.9C366.5,20.9,365.8,20,365.8,18.7z M366.5,18.3L366.5,18.3l2.3,0.1v-0.1
			c0-0.7-0.4-1.2-1.1-1.2C367,17.1,366.5,17.6,366.5,18.3z"/>
	</g>
</g>
</svg>
